<?xml version="1.0" encoding="UTF-8"?>
<svg width="92px" height="80px" viewBox="0 0 92 80" version="1.1" xmlns="http://www.w3.org/2000/svg" xmlns:xlink="http://www.w3.org/1999/xlink">
    <!-- Generator: sketchtool 62 (101010) - https://sketch.com -->
    <title>C90D4906-3219-46A3-AFEA-0CF3A9E93B65@1,5x</title>
    <desc>Created with sketchtool.</desc>
    <g id="Brand" stroke="none" stroke-width="1" fill="none" fill-rule="evenodd">
        <g id="icons-illustrarions" transform="translate(-543.000000, -718.000000)" fill-rule="nonzero">
            <g id="alert-triangle" transform="translate(538.000000, 709.000000)">
                <polygon id="Rectangle" fill="#000000" opacity="0" transform="translate(50.500000, 50.500000) rotate(90.000000) translate(-50.500000, -50.500000) " points="-3.19349397e-13 1.95110594e-12 101 1.95110594e-12 101 101 -3.19349397e-13 101"></polygon>
                <path d="M95.1628622,69.2126479 L63.06855,15.6626903 C60.4312035,11.5117266 55.8723746,9 50.9756475,9 C46.0789205,9 41.5200915,11.5117266 38.882745,15.6626903 L6.78843285,69.2126479 C4.48093132,73.0825886 4.40117398,77.8971996 6.57921308,81.8423549 C9.09810874,86.2843822 13.7982567,89.0187216 18.8813353,88.9991889 L83.0699597,88.9991889 C88.1184501,89.0533889 92.8105266,86.3879719 95.372082,82.010751 C97.6152775,78.0224504 97.5352084,73.1245723 95.1628622,69.2126479 L95.1628622,69.2126479 Z M50.9756475,72.1595796 C48.6646698,72.1595796 46.7912522,70.2747421 46.7912522,67.9496772 C46.7912522,65.6246124 48.6646698,63.7397749 50.9756475,63.7397749 C53.2866253,63.7397749 55.1600429,65.6246124 55.1600429,67.9496772 C55.1600429,70.2747421 53.2866253,72.1595796 50.9756475,72.1595796 Z M55.1600429,55.3199702 C55.1600429,57.6450351 53.2866253,59.5298726 50.9756475,59.5298726 C48.6646698,59.5298726 46.7912522,57.6450351 46.7912522,55.3199702 L46.7912522,38.4803609 C46.7912522,36.1552961 48.6646698,34.2704586 50.9756475,34.2704586 C53.2866253,34.2704586 55.1600429,36.1552961 55.1600429,38.4803609 L55.1600429,55.3199702 Z" id="Shape" fill="#FFC13B"></path>
            </g>
        </g>
    </g>
</svg>