<?xml version="1.0" encoding="UTF-8"?>
<svg width="36px" height="36px" viewBox="0 0 36 36" version="1.1" xmlns="http://www.w3.org/2000/svg" xmlns:xlink="http://www.w3.org/1999/xlink">
    <!-- Generator: sketchtool 64 (101010) - https://sketch.com -->
    <title>10AB801A-259B-4896-8969-AD89F17E7124@sv</title>
    <desc>Created with sketchtool.</desc>
    <g id="Brand" stroke="none" stroke-width="1" fill="none" fill-rule="evenodd">
        <g id="icons-illustrarions" transform="translate(-1092.000000, -141.000000)">
            <g id="alert-triangle-prop" transform="translate(1092.000000, 141.000000)">
                <circle id="Oval" fill="#F3A73B" cx="18" cy="18" r="18"></circle>
                <g id="alert-triangle-outline" transform="translate(6.000000, 5.000000)" fill-rule="nonzero">
                    <rect id="Rectangle" fill="#000000" opacity="0" transform="translate(12.000000, 12.000000) rotate(90.000000) translate(-12.000000, -12.000000) " x="0" y="0" width="24" height="24"></rect>
                    <path d="M22.56,16.3 L14.89,3.58 C14.2597186,2.59400001 13.1702353,1.99737652 12,1.99737652 C10.8297647,1.99737652 9.74028139,2.59400001 9.11,3.58 L1.44,16.3 C0.888546003,17.2192471 0.869485343,18.3628867 1.39,19.3 C1.99197363,20.3551378 3.11522982,21.0046397 4.33,21 L19.67,21 C20.8765042,21.0128744 21.9978314,20.3797441 22.61,19.34 C23.146086,18.3926382 23.1269508,17.2292197 22.56,16.3 L22.56,16.3 Z M20.86,18.35 C20.6150429,18.7710719 20.1566679,19.0214447 19.67,19 L4.33,19 C3.8433321,19.0214447 3.38495714,18.7710719 3.14,18.35 C2.96136721,18.0405989 2.96136721,17.6594011 3.14,17.35 L10.82,4.62 C11.0997639,4.25045082 11.5364976,4.03330846 12,4.03330846 C12.4635024,4.03330846 12.9002361,4.25045082 13.18,4.62 L20.85,17.34 C21.0356063,17.6501223 21.0394295,18.0362634 20.86,18.35 Z" id="Shape" fill="#FCE4A1"></path>
                    <circle id="Oval" fill="#FCE4A1" cx="12" cy="16" r="1"></circle>
                    <path d="M12,8 C11.4477153,8 11,8.44771525 11,9 L11,13 C11,13.5522847 11.4477153,14 12,14 C12.5522847,14 13,13.5522847 13,13 L13,9 C13,8.44771525 12.5522847,8 12,8 Z" id="Path" fill="#FCE4A1"></path>
                </g>
            </g>
        </g>
    </g>
</svg>