<?xml version="1.0" encoding="UTF-8"?>
<svg width="7px" height="13px" viewBox="0 0 7 13" version="1.1" xmlns="http://www.w3.org/2000/svg" xmlns:xlink="http://www.w3.org/1999/xlink">
    <!-- Generator: sketchtool 64 (101010) - https://sketch.com -->
    <title>9A8D3E58-6A7D-4E5E-93AC-313711DDF40C@sv</title>
    <desc>Created with sketchtool.</desc>
    <g id="Brand" stroke="none" stroke-width="1" fill="none" fill-rule="evenodd">
        <g id="icons-illustrarions" transform="translate(-1304.000000, -225.000000)" fill="#223066">
            <g id="arrow-right-blue" transform="translate(1304.000000, 225.000000)">
                <path d="M6.08531364,7.88061993 L6.08531121,7.88148067 L1.55791995,12.714607 C1.42811162,12.8455608 1.30332178,12.9241147 1.17382126,12.9660246 C1.03384332,13.0113251 0.890690987,13.0113251 0.750713043,12.9660246 C0.610735098,12.9207239 0.476261008,12.83261 0.335003756,12.6817846 L0.298028334,12.6423047 C0.156771081,12.4914793 0.0742469255,12.3478966 0.0318201109,12.1984372 C-0.0106067036,12.0489778 -0.0106067036,11.896129 0.0318201109,11.7466696 C0.0710712595,11.6083973 0.144641792,11.4751548 0.266852939,11.3360891 L4.79607174,6.50008202 L0.267362825,1.66353053 C0.144671642,1.52489929 0.0710792229,1.39163081 0.0318201109,1.25333047 C-0.0106067036,1.10387106 -0.0106067036,0.95102227 0.0318201109,0.80156287 C0.0742469255,0.652103463 0.156771081,0.508520709 0.298028334,0.357695347 L0.335003756,0.318215388 C0.476261008,0.167390026 0.610735098,0.0792760608 0.750713043,0.0339754574 C0.890690987,-0.0113251525 1.03384332,-0.0113251525 1.17382126,0.0339754574 C1.30334808,0.0758937927 1.42816221,0.154471021 1.5583552,0.285092353 L1.57623667,0.304185069 C1.58066151,0.308800355 1.58509269,0.313476922 1.58953056,0.318215388 L2.68419335,1.48718955 L6.09313327,5.12703527 L6.09313083,5.12789113 L6.73252114,5.81059083 C7.08915961,6.19138628 7.08915961,6.80877777 6.7325212,7.18957334 L6.08531364,7.88061993 Z" id="Path"></path>
            </g>
        </g>
    </g>
</svg>