<?xml version="1.0" encoding="UTF-8"?>
<svg width="52px" height="51px" viewBox="0 0 52 51" version="1.1" xmlns="http://www.w3.org/2000/svg" xmlns:xlink="http://www.w3.org/1999/xlink">
    <!-- Generator: sketchtool 62 (101010) - https://sketch.com -->
    <title>8A74CA14-D1CD-4C45-B9BA-B866E4782E12@1,5x</title>
    <desc>Created with sketchtool.</desc>
    <g id="Brand" stroke="none" stroke-width="1" fill="none" fill-rule="evenodd">
        <g id="style-guide" transform="translate(-257.000000, -1786.000000)">
            <g id="profile" transform="translate(55.000000, 1786.000000)">
                <g id="user" transform="translate(202.000000, 0.000000)">
                    <circle id="Oval" fill="#D8D8D8" cx="25.933964" cy="25.745932" r="25"></circle>
                    <path d="M26.4728366,0.780303968 C12.6675877,0.545526843 1.28413028,11.495532 1.04827214,25.2375066 C0.914304712,33.0292899 4.40311837,40.032222 9.95804937,44.689261 C10.3212709,44.3737205 10.7109086,44.0844751 11.1439441,43.849698 L18.6036655,39.799323 C19.5820051,39.2677876 20.1914625,38.2469767 20.1914625,37.1369504 L20.1914625,34.0942389 C20.1914625,34.0942389 18.0017555,31.4872737 17.1668177,27.8651322 C16.4743382,27.4190557 16.0101693,26.6480476 16.0101693,25.7699812 L16.0101693,22.4399024 C16.0101693,21.7073978 16.3375404,21.0528392 16.8460506,20.5945542 L16.8460506,15.780684 C16.8460506,15.780684 15.8526161,8.28941554 26.0445182,8.28941554 C36.2364203,8.28941554 35.2429858,15.780684 35.2429858,15.780684 L35.2429858,20.5945542 C35.7524394,21.0528392 36.078867,21.7073978 36.078867,22.4399024 L36.078867,25.7699812 C36.078867,26.8893985 35.324121,27.8313243 34.2995532,28.1459257 C33.7287765,29.9123888 32.9051599,31.5962103 31.8164387,33.1269571 C31.5418998,33.5129307 31.2852861,33.8397405 31.0607492,34.0942389 L31.0607492,37.2139573 C31.0607492,38.362487 31.7126611,39.4133494 32.7447763,39.9261027 L40.7328199,43.901349 C41.2120837,44.1398825 41.6451192,44.4413364 42.0441912,44.7765981 C47.4311912,40.3045634 50.911514,33.6181109 51.0407642,26.0883389 C51.2785092,12.3463643 40.2790289,1.01508109 26.4728366,0.780303968 Z" id="Path" fill="#223066" fill-rule="nonzero"></path>
                </g>
            </g>
        </g>
    </g>
</svg>