<?xml version="1.0" encoding="UTF-8"?>
<svg width="116px" height="116px" viewBox="0 0 116 116" version="1.1" xmlns="http://www.w3.org/2000/svg" xmlns:xlink="http://www.w3.org/1999/xlink">
    <!-- Generator: sketchtool 62 (101010) - https://sketch.com -->
    <title>04CFDF4B-C2D0-45F2-8614-781CC352295A@1,5x</title>
    <desc>Created with sketchtool.</desc>
    <g id="Brand" stroke="none" stroke-width="1" fill="none" fill-rule="evenodd">
        <g id="icons-illustrarions" transform="translate(-1090.000000, -694.000000)" fill-rule="nonzero">
            <g id="blueprint" transform="translate(1090.000000, 694.000000)">
                <path d="M71,78.9047619 L71,60.0952381 L62.1123182,60.0952381 C61.529,58.1766667 60.7686364,56.3239286 59.8442727,54.5595952 L66.1247273,48.2207857 L52.9469545,34.9205714 L46.6665,41.259381 C44.9184091,40.3264286 43.0808636,39.560881 41.1818182,38.9702619 L41.1818182,30 L32.4469545,30 L31.8636364,48.8546667 L31.8636364,50.6904762 C42.1565,50.6904762 50.5,59.1115 50.5,69.5 C50.5,79.8885 42.1565,88.3095238 31.8636364,88.3095238 L31.8636364,99.5952381 C31.8636364,102.18719 31.2132273,104.626786 30.0689545,106.756024 L30,109 L41.1818182,109 L41.1818182,100.029738 C43.0827273,99.441 44.9184091,98.6735714 46.6665,97.740619 L52.9469545,104.079429 L66.1247273,90.7792143 L59.8442727,84.4404048 C60.7686364,82.6760714 61.5271364,80.8214524 62.1123182,78.9047619 L71,78.9047619 Z" id="Path" fill="#F3A73B"></path>
                <g id="Group" fill="#333333">
                    <path d="M108.516129,22.4516129 L108.516129,20.2214194 L101.593548,2.91309677 C100.884452,1.14316129 99.1949677,0 97.2903226,0 C95.3856774,0 93.6961935,1.14316129 92.9870968,2.91309677 L86.0645161,20.2214194 L86.0645161,22.4516129 L33.5670323,22.4516129 C32.6315484,14.0453548 25.4900645,7.48387097 16.8387097,7.48387097 C7.55496774,7.48387097 0,15.0369677 0,24.3225806 L0,99.1612903 C0,108.446903 7.55496774,116 16.8387097,116 L116,116 L116,22.4516129 L108.516129,22.4516129 Z M95.4193548,22.4516129 L95.4193548,61.7419355 L89.8064516,61.7419355 L89.8064516,22.4516129 L95.4193548,22.4516129 Z M89.8064516,65.483871 L104.774194,65.483871 L104.774194,72.9677419 C104.774194,74.0005161 103.934129,74.8387097 102.903226,74.8387097 L91.6774194,74.8387097 C90.6465161,74.8387097 89.8064516,74.0005161 89.8064516,72.9677419 L89.8064516,65.483871 Z M104.774194,61.7419355 L99.1612903,61.7419355 L99.1612903,22.4516129 L104.774194,22.4516129 L104.774194,61.7419355 Z M96.4614839,4.30322581 C96.7365161,3.62406452 97.847871,3.62593548 98.1191613,4.30322581 L103.881742,18.7096774 L90.6989032,18.7096774 L96.4614839,4.30322581 Z M36.483871,77.3308387 C35.613871,77.834129 34.6615484,78.1709032 33.6774194,78.3729677 L33.6774194,60.0618065 C37.9413548,60.9318065 41.1612903,64.7092903 41.1612903,69.2276774 C41.1612903,71.4335484 40.3810968,73.5720645 38.9610323,75.2540645 L41.819871,77.6694839 C43.8087097,75.3120645 44.9032258,72.3129032 44.9032258,69.2258065 C44.9032258,62.641871 40.0143871,57.1917419 33.6774194,56.2787097 L33.6774194,52.4974839 C42.0836774,53.4310968 48.6451613,60.5725806 48.6451613,69.2258065 C48.6451613,77.8790323 42.0836774,85.0205161 33.6774194,85.954129 L33.6774194,82.1785161 C35.323871,81.9409032 36.9160645,81.4020645 38.3567097,80.5676129 L36.483871,77.3308387 Z M3.74193548,24.3225806 C3.74193548,17.1025161 9.61677419,11.2258065 16.8387097,11.2258065 C24.0606452,11.2258065 29.9354839,17.1025161 29.9354839,24.3225806 L29.9354839,88.6015484 C26.8465161,84.7772903 22.1260645,82.3225806 16.8387097,82.3225806 C11.5513548,82.3225806 6.83090323,84.7772903 3.74193548,88.6015484 L3.74193548,24.3225806 Z M3.74193548,99.1612903 C3.74193548,91.9412258 9.61677419,86.0645161 16.8387097,86.0645161 C24.0606452,86.0645161 29.9354839,91.9412258 29.9354839,99.1612903 C29.9354839,106.381355 24.0606452,112.258065 16.8387097,112.258065 C9.61677419,112.258065 3.74193548,106.381355 3.74193548,99.1612903 Z M112.258065,112.258065 L27.3984516,112.258065 C31.2227097,109.169097 33.6774194,104.448645 33.6774194,99.1612903 L33.6774194,89.7110323 C44.1510968,88.7624516 52.3870968,79.9427097 52.3870968,69.2258065 C52.3870968,58.5089032 44.1510968,49.6891613 33.6774194,48.7405806 L33.6774194,26.1935484 L86.0645161,26.1935484 L86.0645161,72.9677419 C86.0645161,76.0623226 88.5828387,78.5806452 91.6774194,78.5806452 L102.903226,78.5806452 C105.997806,78.5806452 108.516129,76.0623226 108.516129,72.9677419 L108.516129,26.1935484 L112.258065,26.1935484 L112.258065,112.258065 Z" id="Shape"></path>
                    <path d="M16.8387097,89.8064516 C11.6804516,89.8064516 7.48387097,94.0030323 7.48387097,99.1612903 C7.48387097,104.319548 11.6804516,108.516129 16.8387097,108.516129 L16.8387097,104.774194 C13.744129,104.774194 11.2258065,102.255871 11.2258065,99.1612903 C11.2258065,96.0667097 13.744129,93.5483871 16.8387097,93.5483871 C19.9332903,93.5483871 22.4516129,96.0667097 22.4516129,99.1612903 L26.1935484,99.1612903 C26.1935484,94.0030323 21.9969677,89.8064516 16.8387097,89.8064516 Z" id="Path"></path>
                </g>
            </g>
        </g>
    </g>
</svg>