<?xml version="1.0" encoding="UTF-8"?>
<svg width="18px" height="20px" viewBox="0 0 18 20" version="1.1" xmlns="http://www.w3.org/2000/svg" xmlns:xlink="http://www.w3.org/1999/xlink">
    <!-- Generator: sketchtool 62 (101010) - https://sketch.com -->
    <title>890BFB05-D1B1-492D-B1A9-A2585375A68E@sv</title>
    <desc>Created with sketchtool.</desc>
    <g id="Brand" stroke="none" stroke-width="1" fill="none" fill-rule="evenodd">
        <g id="icons-illustrarions" transform="translate(-708.000000, -258.000000)" fill="#223066" fill-rule="nonzero">
            <path d="M708,262 L708,264 L708,276 C708,277.103 708.897,278 710,278 L724,278 C725.103,278 726,277.103 726,276 L726,264 L726,262 C726,260.897 725.103,260 724,260 L722,260 L722,259 C722,258.447715 721.552285,258 721,258 C720.447715,258 720,258.447715 720,259 L720,260 L720,260 L714,260 L714,259 C714,258.447715 713.552285,258 713,258 C712.447715,258 712,258.447715 712,259 L712,260 L712,260 L710,260 C708.897,260 708,260.897 708,262 Z M724.002,276 L710,276 L710,264 L724,264 L724.002,276 Z" id="calendar-blue"></path>
        </g>
    </g>
</svg>