<?xml version="1.0" encoding="UTF-8"?>
<svg width="18px" height="20px" viewBox="0 0 18 20" version="1.1" xmlns="http://www.w3.org/2000/svg" xmlns:xlink="http://www.w3.org/1999/xlink">
    <!-- Generator: sketchtool 62 (101010) - https://sketch.com -->
    <title>660D8284-8BFA-423C-A01E-CA84D692E1B8@sv</title>
    <desc>Created with sketchtool.</desc>
    <g id="Brand" stroke="none" stroke-width="1" fill="none" fill-rule="evenodd">
        <g id="icons-illustrarions" transform="translate(-708.000000, -222.000000)" fill="#293136" fill-rule="nonzero">
            <path d="M708,226 L708,228 L708,240 C708,241.103 708.897,242 710,242 L724,242 C725.103,242 726,241.103 726,240 L726,228 L726,226 C726,224.897 725.103,224 724,224 L722,224 L722,223 C722,222.447715 721.552285,222 721,222 C720.447715,222 720,222.447715 720,223 L720,224 L720,224 L714,224 L714,223 C714,222.447715 713.552285,222 713,222 C712.447715,222 712,222.447715 712,223 L712,224 L712,224 L710,224 C708.897,224 708,224.897 708,226 Z M724.002,240 L710,240 L710,228 L724,228 L724.002,240 Z" id="calendar-dark"></path>
        </g>
    </g>
</svg>