<?xml version="1.0" encoding="UTF-8"?>
<svg width="20px" height="18px" viewBox="0 0 20 18" version="1.1" xmlns="http://www.w3.org/2000/svg" xmlns:xlink="http://www.w3.org/1999/xlink">
    <!-- Generator: sketchtool 62 (101010) - https://sketch.com -->
    <title>870E1FC9-FD45-4A2A-85D0-491841DF4AE9@sv</title>
    <desc>Created with sketchtool.</desc>
    <g id="Brand" stroke="none" stroke-width="1" fill="none" fill-rule="evenodd">
        <g id="icons-illustrarions" transform="translate(-1100.000000, -222.000000)" fill="#747D85" fill-rule="nonzero">
            <g id="ic-camera-alt-24px" transform="translate(1100.000000, 222.000000)">
                <circle id="Oval" cx="10" cy="10" r="3.2"></circle>
                <path d="M7,0 L5.17,2 L2,2 C0.9,2 0,2.9 0,4 L0,16 C0,17.1 0.9,18 2,18 L18,18 C19.1,18 20,17.1 20,16 L20,4 C20,2.9 19.1,2 18,2 L14.83,2 L13,0 L7,0 Z M10,15 C7.24,15 5,12.76 5,10 C5,7.24 7.24,5 10,5 C12.76,5 15,7.24 15,10 C15,12.76 12.76,15 10,15 Z" id="Shape"></path>
            </g>
        </g>
    </g>
</svg>