<?xml version="1.0" encoding="UTF-8"?>
<svg width="20px" height="20px" viewBox="0 0 20 20" version="1.1" xmlns="http://www.w3.org/2000/svg" xmlns:xlink="http://www.w3.org/1999/xlink">
    <!-- Generator: sketchtool 62 (101010) - https://sketch.com -->
    <title>9AB80750-7941-4385-9586-8A7B87E3DC14@sv</title>
    <desc>Created with sketchtool.</desc>
    <g id="Brand" stroke="none" stroke-width="1" fill="none" fill-rule="evenodd">
        <g id="icons-illustrarions" transform="translate(-1008.000000, -149.000000)" fill="#3DCA36" fill-rule="nonzero">
            <path d="M1018,149 C1012.47715,149 1008,153.477153 1008,159 C1008,164.522847 1012.47715,169 1018,169 C1023.52285,169 1028,164.522847 1028,159 C1028,156.347835 1026.94643,153.804296 1025.07107,151.928932 C1023.1957,150.053568 1020.65216,149 1018,149 Z M1022.3,156.61 L1017.73,162.61 C1017.54121,162.855247 1017.2495,162.999256 1016.94,163.000015 C1016.63222,163.001658 1016.34082,162.861492 1016.15,162.62 L1013.71,159.51 C1013.49028,159.22776 1013.43783,158.849742 1013.57239,158.51834 C1013.70696,158.186938 1014.00811,157.952502 1014.36239,157.90334 C1014.71668,157.854178 1015.07028,157.99776 1015.29,158.28 L1016.92,160.36 L1020.7,155.36 C1020.91793,155.074188 1021.27179,154.926351 1021.62828,154.97218 C1021.98476,155.018008 1022.28972,155.250539 1022.42828,155.58218 C1022.56683,155.913821 1022.51793,156.294188 1022.3,156.58 L1022.3,156.61 Z" id="check--white"></path>
        </g>
    </g>
</svg>