<?xml version="1.0" encoding="UTF-8"?>
<svg width="125px" height="126px" viewBox="0 0 125 126" version="1.1" xmlns="http://www.w3.org/2000/svg" xmlns:xlink="http://www.w3.org/1999/xlink">
    <!-- Generator: sketchtool 62 (101010) - https://sketch.com -->
    <title>AE2D16A8-7446-4AAE-845E-86B036AF4AFE@1,5x</title>
    <desc>Created with sketchtool.</desc>
    <g id="Brand" stroke="none" stroke-width="1" fill="none" fill-rule="evenodd">
        <g id="icons-illustrarions" transform="translate(-218.000000, -684.000000)" fill="#3DCA36">
            <g id="Group" transform="translate(218.000000, 684.000000)">
                <ellipse id="Oval" fill-opacity="0.3" cx="68.5" cy="70" rx="56.5" ry="56"></ellipse>
                <g id="bx-check-circle" fill-rule="nonzero">
                    <path d="M56.5,0 C25.3459,0 0,25.3459 0,56.5 C0,87.6541 25.3459,113 56.5,113 C87.6541,113 113,87.6541 113,56.5 C113,25.3459 87.6541,0 56.5,0 Z M56.5,101.7 C31.57785,101.7 11.3,81.42215 11.3,56.5 C11.3,31.57785 31.57785,11.3 56.5,11.3 C81.42215,11.3 101.7,31.57785 101.7,56.5 C101.7,81.42215 81.42215,101.7 56.5,101.7 Z" id="Shape"></path>
                    <path d="M45.19435,65.46655 L36.2030305,56.4908744 C33.9961795,54.287863 30.4212797,54.2909757 28.2182683,56.4978268 C28.2175453,56.498551 28.2168226,56.4992754 28.2161,56.5 C26.0128746,58.7094668 26.0173331,62.2864761 28.2260596,64.4904437 L41.6701202,77.9055378 C43.6233559,79.8545651 46.7862405,79.8528595 48.737373,77.901727 L79.1,47.5391 C81.306129,45.332971 81.306129,41.756129 79.1,39.55 C76.893871,37.343871 73.317029,37.343871 71.1109,39.55 L45.19435,65.46655 L45.19435,65.46655 Z" id="Path"></path>
                </g>
            </g>
        </g>
    </g>
</svg> 