<?xml version="1.0" encoding="UTF-8"?>
<svg width="17px" height="20px" viewBox="0 0 17 20" version="1.1" xmlns="http://www.w3.org/2000/svg" xmlns:xlink="http://www.w3.org/1999/xlink">
    <!-- Generator: sketchtool 62 (101010) - https://sketch.com -->
    <title>76457463-D403-4619-8E18-53D213C38E6A@sv</title>
    <desc>Created with sketchtool.</desc>
    <g id="Brand" stroke="none" stroke-width="1" fill="none" fill-rule="evenodd">
        <g id="icons-illustrarions" transform="translate(-599.000000, -222.000000)" fill="#293136" fill-rule="nonzero">
            <g id="company--dark" transform="translate(599.000000, 222.000000)">
                <path d="M15.1111111,0 L5.66666667,0 C4.62494444,0 3.77777778,0.897 3.77777778,2 L3.77777778,8 L1.88888889,8 C0.847166667,8 0,8.897 0,10 L0,19 C0,19.552 0.422166667,20 0.944444444,20 L8.5,20 L16.0555556,20 C16.5778333,20 17,19.552 17,19 L17,2 C17,0.897 16.1528333,0 15.1111111,0 Z M1.88888889,10 L4.72222222,10 L7.55555556,10 L7.55555556,12 L7.55555556,14 L7.55555556,18 L1.88888889,18 L1.88888889,10 Z M15.1111111,18 L9.44444444,18 L9.44444444,14 L9.44444444,12 L9.44444444,10 C9.44444444,8.897 8.59727778,8 7.55555556,8 L5.66666667,8 L5.66666667,2 L15.1111111,2 L15.1111111,18 Z" id="Shape"></path>
                <path d="M7.6,4 L9.4,4 L9.4,5.99980002 L7.6,5.99980002 L7.6,4 Z M11.2,4 L13,4 L13,5.99980002 L11.2,5.99980002 L11.2,4 Z M11.2,8.03059694 L13,8.03059694 L13,9.99940006 L11.2,9.99940006 L11.2,8.03059694 Z M11.2,11.9992001 L13,11.9992001 L13,13.9990001 L11.2,13.9990001 L11.2,11.9992001 Z M4,12.0002 L5.8,12.0002 L5.8,14 L4,14 L4,12.0002 Z" id="Shape"></path>
            </g>
        </g>
    </g>
</svg>