<?xml version="1.0" encoding="UTF-8"?>
<svg width="20px" height="15px" viewBox="0 0 20 15" version="1.1" xmlns="http://www.w3.org/2000/svg" xmlns:xlink="http://www.w3.org/1999/xlink">
    <!-- Generator: sketchtool 62 (101010) - https://sketch.com -->
    <title>3F09A589-460B-4914-AE8F-54D6E6693F85@1,5x</title>
    <desc>Created with sketchtool.</desc>
    <g id="Brand" stroke="none" stroke-width="1" fill="none" fill-rule="evenodd">
        <g id="style-guide" transform="translate(-125.000000, -1930.000000)" fill="#223066" fill-rule="nonzero">
            <g id="Group-2" transform="translate(104.000000, 1852.000000)">
                <g id="creditcard.fill" transform="translate(21.000000, 78.000000)">
                    <path d="M0,12.2443498 C0,13.1599264 0.238315672,13.8480956 0.714938537,14.3088574 C1.1915614,14.7696191 1.90649711,15 2.85974567,15 L17.1402459,15 C18.0874212,15 18.8008393,14.7696191 19.2805002,14.3088574 C19.7601611,13.8480956 20,13.1599264 20,12.2443498 L20,5.61829836 L0,5.61829836 L0,12.2443498 Z M4.23910951e-06,3.5939425 L20.0000042,3.5939425 L20.0000042,2.76457051 C20.0000042,1.84899388 19.7601653,1.15933727 19.2805044,0.695600703 C18.8008435,0.231866901 18.0874254,0 17.1402501,0 L2.85974991,0 C1.90650135,0 1.19156564,0.230380876 0.714942776,0.691142628 C0.238319911,1.15190438 4.23910951e-06,1.84304701 4.23910951e-06,2.76457051 L4.23910951e-06,3.5939425 Z M3.04189597,10.0684028 L3.04189597,8.41857913 C3.04189597,8.16887606 3.12386311,7.96376313 3.28779738,7.80324036 C3.45173166,7.64271704 3.66727484,7.56245538 3.93442691,7.56245538 L6.16575427,7.56245538 C6.43290634,7.56245538 6.64844952,7.64271704 6.8123838,7.80324036 C6.97631807,7.96376369 7.05828521,8.16887661 7.05828521,8.41857913 L7.05828521,10.0684028 C7.05828521,10.3240511 6.97631807,10.53065 6.8123838,10.6881996 C6.64844952,10.8457504 6.43290634,10.9245257 6.16575427,10.9245257 L3.93442691,10.9245257 C3.66727484,10.9245257 3.45173166,10.8457504 3.28779738,10.6881996 C3.12386311,10.5306489 3.04189597,10.32405 3.04189597,10.0684028 Z" id="Shape"></path>
                </g>
            </g>
        </g>
    </g>
</svg>