<?xml version="1.0" encoding="UTF-8"?>
<svg width="20px" height="20px" viewBox="0 0 20 20" version="1.1" xmlns="http://www.w3.org/2000/svg" xmlns:xlink="http://www.w3.org/1999/xlink">
    <!-- Generator: sketchtool 62 (101010) - https://sketch.com -->
    <title>C5A91ABC-424E-454A-B3E9-DF28D33D7493@sv</title>
    <desc>Created with sketchtool.</desc>
    <g id="Brand" stroke="none" stroke-width="1" fill="none" fill-rule="evenodd">
        <g id="icons-illustrarions" transform="translate(-41.000000, -149.000000)" fill="#F5F5F5" fill-rule="nonzero">
            <g id="icons-White" transform="translate(41.000000, 147.000000)">
                <g id="bxs-dashboard-white" transform="translate(0.000000, 2.000000)">
                    <path d="M1.11111111,11.1111111 L7.77777778,11.1111111 C8.39111111,11.1111111 8.88888889,10.6144444 8.88888889,10 L8.88888889,1.11111111 C8.88888889,0.496666667 8.39111111,0 7.77777778,0 L1.11111111,0 C0.497777778,0 0,0.496666667 0,1.11111111 L0,10 C0,10.6144444 0.497777778,11.1111111 1.11111111,11.1111111 Z M0,18.8888889 C0,19.5033333 0.497777778,20 1.11111111,20 L7.77777778,20 C8.39111111,20 8.88888889,19.5033333 8.88888889,18.8888889 L8.88888889,14.4444444 C8.88888889,13.83 8.39111111,13.3333333 7.77777778,13.3333333 L1.11111111,13.3333333 C0.497777778,13.3333333 0,13.83 0,14.4444444 L0,18.8888889 Z M11.1111111,18.8888889 C11.1111111,19.5033333 11.6077778,20 12.2222222,20 L18.8888889,20 C19.5033333,20 20,19.5033333 20,18.8888889 L20,11.1111111 C20,10.4966667 19.5033333,10 18.8888889,10 L12.2222222,10 C11.6077778,10 11.1111111,10.4966667 11.1111111,11.1111111 L11.1111111,18.8888889 Z M12.2222222,7.77777778 L18.8888889,7.77777778 C19.5033333,7.77777778 20,7.28111111 20,6.66666667 L20,1.11111111 C20,0.496666667 19.5033333,0 18.8888889,0 L12.2222222,0 C11.6077778,0 11.1111111,0.496666667 11.1111111,1.11111111 L11.1111111,6.66666667 C11.1111111,7.28111111 11.6077778,7.77777778 12.2222222,7.77777778 Z" id="Shape"></path>
                </g>
            </g>
        </g>
    </g>
</svg>