<svg xmlns="http://www.w3.org/2000/svg" xmlns:xlink="http://www.w3.org/1999/xlink" width="20px" height="16px" viewBox="0 0 20 16" version="1.1">
    <!-- Generator: sketchtool 62 (101010) - https://sketch.com -->
    <title>D01E3CBE-2EAF-4F00-96B6-761CE6083853@sv</title>
    <desc>Created with sketchtool.</desc>
    <g id="Brand" stroke="none" stroke-width="1" fill="none" fill-rule="evenodd">
        <g id="icons-illustrarions" transform="translate(-483.000000, -224.000000)" fill="#293136" fill-rule="nonzero">
            <g id="icons-dark" transform="translate(41.000000, 220.000000)">
                <path d="M459,4 L445,4 C443.343146,4 442,5.34314575 442,7 L442,17 C442,18.6568542 443.343146,20 445,20 L459,20 C460.656854,20 462,18.6568542 462,17 L462,7 C462,5.34314575 460.656854,4 459,4 Z M458.33,6 L452,10.75 L445.67,6 L458.33,6 Z M459,18 L445,18 C444.447715,18 444,17.5522847 444,17 L444,7.25 L451.4,12.8 C451.573096,12.9298221 451.78363,13 452,13 C452.21637,13 452.426904,12.9298221 452.6,12.8 L460,7.25 L460,17 C460,17.5522847 459.552285,18 459,18 Z" id="mail-dark"/>
            </g>
        </g>
    </g>
</svg>