<?xml version="1.0" encoding="UTF-8"?>
<svg width="14px" height="12px" viewBox="0 0 14 12" version="1.1" xmlns="http://www.w3.org/2000/svg" xmlns:xlink="http://www.w3.org/1999/xlink">
    <!-- Generator: sketchtool 62 (101010) - https://sketch.com -->
    <title>7903130A-CD27-47A7-A556-2F6F14E8CB4E@1,5x</title>
    <desc>Created with sketchtool.</desc>
    <g id="Brand" stroke="none" stroke-width="1" fill="none" fill-rule="evenodd">
        <g id="style-guide" transform="translate(-170.000000, -1702.000000)">
            <g id="Enter-button" transform="translate(170.000000, 1701.500000)">
                <rect id="Rectangle" fill="#C5CDD4" x="0" y="0.5" width="14" height="12" rx="2"></rect>
                <g id="arrow.turn.down.left" transform="translate(4.000000, 3.500000)" fill="#F5F5F5" fill-rule="nonzero">
                    <path d="M6.4913233,0 C6.3537076,0 6.2431233,0.043263217 6.15957042,0.129789651 C6.07601765,0.216316085 6.03424127,0.328800576 6.03424127,0.467243124 C6.03424127,0.543880878 6.03669871,0.62608095 6.04161358,0.71384334 C6.04652845,0.801605845 6.04898589,0.903583391 6.04898589,1.01977598 C6.04898589,1.39307573 5.99983722,1.69530027 5.90153988,1.9264496 C5.80324254,2.15759894 5.64473833,2.32694359 5.42602725,2.43448357 C5.20731559,2.54202355 4.91365204,2.59579354 4.54503658,2.59579354 L2.29279073,2.59579354 L1.43023222,2.64770937 L2.38863171,1.77255658 L3.22170189,0.934485902 C3.26347821,0.889986557 3.29788225,0.839924837 3.32491401,0.784300742 C3.35194576,0.728676647 3.36546164,0.665017633 3.36546164,0.5933237 C3.36546164,0.464769832 3.32245656,0.357229853 3.2364464,0.270703765 C3.15043624,0.18417733 3.03862291,0.140914113 2.90100641,0.140914113 C2.77813459,0.140914113 2.66632126,0.190357798 2.56556641,0.289245168 L0.151132096,2.71817212 C0.104440874,2.76267146 0.0675793856,2.81644145 0.0405476314,2.87948209 C0.0135158771,2.94252283 0,3.00618185 0,3.07045913 C0,3.13473595 0.0135158771,3.19777647 0.0405476314,3.25958068 C0.0675793856,3.32138525 0.104440874,3.37577327 0.151132096,3.42274476 L2.55818875,5.84796073 C2.66385838,5.94932024 2.77812921,6 2.90100126,6 C3.03861696,6 3.15043029,5.95673678 3.23644125,5.87021035 C3.32245141,5.78368391 3.36545649,5.67614394 3.36545649,5.54759041 C3.36545649,5.47836931 3.35194061,5.4147103 3.32490886,5.35661337 C3.29787711,5.29851702 3.26347307,5.2484553 3.22169674,5.20642821 L2.38862657,4.36465002 L1.43391419,3.49691399 L2.2927873,3.54512161 L4.61138064,3.54512161 C5.44445024,3.54512161 6.05081972,3.3399301 6.43048909,2.92954709 C6.81016303,2.51916407 7,1.88875889 7,1.03833153 C7,0.929555486 6.99754256,0.825723604 6.99262769,0.726835889 C6.98771282,0.627948519 6.97788308,0.532769246 6.96313849,0.44129807 C6.94839392,0.372076968 6.92381955,0.303474018 6.8894154,0.235489217 C6.85501136,0.167504186 6.80524834,0.111261998 6.74012634,0.0667626533 C6.67500435,0.0222633082 6.5920657,0 6.4913104,0 L6.4913233,0 Z" id="Path"></path>
                </g>
            </g>
        </g>
    </g>
</svg>