<?xml version="1.0" encoding="UTF-8"?>
<svg width="125px" height="126px" viewBox="0 0 125 126" version="1.1" xmlns="http://www.w3.org/2000/svg" xmlns:xlink="http://www.w3.org/1999/xlink">
    <!-- Generator: sketchtool 62 (101010) - https://sketch.com -->
    <title>8A317B03-4BFF-4277-8F4F-44C09BB55798@1,5x</title>
    <desc>Created with sketchtool.</desc>
    <g id="Brand" stroke="none" stroke-width="1" fill="none" fill-rule="evenodd">
        <g id="icons-illustrarions" transform="translate(-378.000000, -684.000000)" fill="#F5515F">
            <g id="error" transform="translate(378.000000, 684.000000)">
                <ellipse id="Oval" fill-opacity="0.50972465" cx="68.5" cy="70" rx="56.5" ry="56"></ellipse>
                <g id="bx-error-circle" fill-rule="nonzero">
                    <path d="M56.23445,0 C25.22725,0 0,25.1216 0,56 C0,86.8784 25.3459,112 56.5,112 C87.6541,112 113,86.8784 113,56 C113,25.1216 87.53545,0 56.23445,0 Z M56.5,100.8 C31.57785,100.8 11.3,80.7016 11.3,56 C11.3,31.2984 31.45355,11.2 56.23445,11.2 C81.30915,11.2 101.7,31.2984 101.7,56 C101.7,80.7016 81.42215,100.8 56.5,100.8 Z" id="Shape"></path>
                    <path d="M57,29 C60.3137085,29 63,31.6862915 63,35 L63,62.2 C63,65.5137085 60.3137085,68.2 57,68.2 C53.6862915,68.2 51,65.5137085 51,62.2 L51,35 C51,31.6862915 53.6862915,29 57,29 Z M56.6,73.8 L57.4,73.8 C60.4927946,73.8 63,76.3072054 63,79.4 C63,82.4927946 60.4927946,85 57.4,85 L56.6,85 C53.5072054,85 51,82.4927946 51,79.4 C51,76.3072054 53.5072054,73.8 56.6,73.8 Z" id="Shape"></path>
                </g>
            </g>
        </g>
    </g>
</svg> 