<?xml version="1.0" encoding="UTF-8"?>
<svg width="20px" height="14px" viewBox="0 0 20 14" version="1.1" xmlns="http://www.w3.org/2000/svg" xmlns:xlink="http://www.w3.org/1999/xlink">
    <!-- Generator: sketchtool 62 (101010) - https://sketch.com -->
    <title>9606E6C3-48CF-430A-BD2C-44FDD4A38AFC@sv</title>
    <desc>Created with sketchtool.</desc>
    <g id="Brand" stroke="none" stroke-width="1" fill="none" fill-rule="evenodd">
        <g id="style-guide" transform="translate(-170.000000, -1669.000000)" fill-rule="nonzero">
            <g id="tags/tags-users-copy" transform="translate(168.000000, 1664.000000)">
                <g id="Group">
                    <g id="eye-outline">
                        <rect id="Rectangle" fill="#000000" opacity="0" x="0" y="0" width="24" height="24"></rect>
                        <path d="M21.87,11.5 C21.23,10.39 17.71,4.82 11.73,5 C6.2,5.14 3,10 2.13,11.5 C1.95136721,11.8094011 1.95136721,12.1905989 2.13,12.5 C2.76,13.59 6.13,19 12.02,19 L12.27,19 C17.8,18.86 21.01,14 21.87,12.5 C22.0486328,12.1905989 22.0486328,11.8094011 21.87,11.5 Z M12.22,17 C7.91,17.1 5.1,13.41 4.22,12 C5.22,10.39 7.83,7.1 11.83,7 C16.12,6.89 18.94,10.59 19.83,12 C18.8,13.61 16.22,16.9 12.22,17 Z" id="Shape" fill="#C5CDD4"></path>
                        <path d="M12,8.5 C10.0670034,8.5 8.5,10.0670034 8.5,12 C8.5,13.9329966 10.0670034,15.5 12,15.5 C13.9329966,15.5 15.5,13.9329966 15.5,12 C15.5,10.0670034 13.9329966,8.5 12,8.5 Z M12,13.5 C11.1715729,13.5 10.5,12.8284271 10.5,12 C10.5,11.1715729 11.1715729,10.5 12,10.5 C12.8284271,10.5 13.5,11.1715729 13.5,12 C13.5,12.8284271 12.8284271,13.5 12,13.5 Z" id="Shape" fill="#C5CDD4"></path>
                    </g>
                </g>
            </g>
        </g>
    </g>
</svg>