<?xml version="1.0" encoding="UTF-8"?>
<svg width="37px" height="35px" viewBox="0 0 37 35" version="1.1" xmlns="http://www.w3.org/2000/svg" xmlns:xlink="http://www.w3.org/1999/xlink">
    <!-- Generator: sketchtool 62 (101010) - https://sketch.com -->
    <title>D8959416-BDA7-4F98-A2B6-4B9CA60D7DAB@svx</title>
    <desc>Created with sketchtool.</desc>
    <g id="Brand" stroke="none" stroke-width="1" fill="none" fill-rule="evenodd">
        <g id="icons-illustrarions" transform="translate(-39.000000, -428.000000)">
            <g id="folder-client" transform="translate(41.000000, 430.000000)">
                <path d="M33,27.5555556 C33,29.4578697 31.4425632,31 29.5213675,31 L3.47863248,31 C1.55743681,31 0,29.4578697 0,27.5555556 L0,3.44444444 C0,1.54213031 1.55743681,0 3.47863248,0 L12.1752137,0 L15.6538462,5.16666667 L29.5213675,5.16666667 C31.4425632,5.16666667 33,6.70879697 33,8.61111111 L33,27.5555556 Z" id="Path" stroke="#223066" stroke-width="3" stroke-linecap="round" stroke-linejoin="round"></path>
                <g id="ic-account-circle-24px" transform="translate(18.000000, 16.000000)" fill="#223066" fill-rule="nonzero">
                    <path d="M6,0 C2.688,0 0,2.688 0,6 C0,9.312 2.688,12 6,12 C9.312,12 12,9.312 12,6 C12,2.688 9.312,0 6,0 Z M6,1.8 C6.996,1.8 7.8,2.604 7.8,3.6 C7.8,4.596 6.996,5.4 6,5.4 C5.004,5.4 4.2,4.596 4.2,3.6 C4.2,2.604 5.004,1.8 6,1.8 Z M6,10.32 C4.5,10.32 3.174,9.552 2.4,8.388 C2.418,7.194 4.8,6.54 6,6.54 C7.194,6.54 9.582,7.194 9.6,8.388 C8.826,9.552 7.5,10.32 6,10.32 Z" id="Shape"></path>
                </g>
            </g>
        </g>
    </g>
</svg>