<?xml version="1.0" encoding="UTF-8"?>
<svg width="37px" height="35px" viewBox="0 0 37 35" version="1.1" xmlns="http://www.w3.org/2000/svg" xmlns:xlink="http://www.w3.org/1999/xlink">
    <!-- Generator: sketchtool 62 (101010) - https://sketch.com -->
    <title>FA78F42B-22B4-458B-AB2B-CFACAB3E6DC0@1,5x</title>
    <desc>Created with sketchtool.</desc>
    <g id="Brand" stroke="none" stroke-width="1" fill="none" fill-rule="evenodd">
        <g id="icons-illustrarions" transform="translate(-92.000000, -428.000000)">
            <g id="folder-suppliers" transform="translate(94.000000, 430.000000)">
                <path d="M33,27.5555556 C33,29.4578697 31.4425632,31 29.5213675,31 L3.47863248,31 C1.55743681,31 0,29.4578697 0,27.5555556 L0,3.44444444 C0,1.54213031 1.55743681,0 3.47863248,0 L12.1752137,0 L15.6538462,5.16666667 L29.5213675,5.16666667 C31.4425632,5.16666667 33,6.70879697 33,8.61111111 L33,27.5555556 Z" id="Path" stroke="#223066" stroke-width="3" stroke-linecap="round" stroke-linejoin="round"></path>
                <g id="ic-group-work-24px" transform="translate(19.000000, 17.000000)">
                    <polygon id="Path" points="0 0 12 0 12 12 0 12"></polygon>
                    <path d="M6,1 C3.24,1 1,3.24 1,6 C1,8.76 3.24,11 6,11 C8.76,11 11,8.76 11,6 C11,3.24 8.76,1 6,1 Z M4,8.75 C3.31,8.75 2.75,8.19 2.75,7.5 C2.75,6.81 3.31,6.25 4,6.25 C4.69,6.25 5.25,6.81 5.25,7.5 C5.25,8.19 4.69,8.75 4,8.75 Z M4.75,4 C4.75,3.31 5.31,2.75 6,2.75 C6.69,2.75 7.25,3.31 7.25,4 C7.25,4.69 6.69,5.25 6,5.25 C5.31,5.25 4.75,4.69 4.75,4 Z M8,8.75 C7.31,8.75 6.75,8.19 6.75,7.5 C6.75,6.81 7.31,6.25 8,6.25 C8.69,6.25 9.25,6.81 9.25,7.5 C9.25,8.19 8.69,8.75 8,8.75 Z" id="Shape" fill="#223066" fill-rule="nonzero"></path>
                </g>
            </g>
        </g>
    </g>
</svg>