<?xml version="1.0" encoding="UTF-8"?>
<svg width="21px" height="21px" viewBox="0 0 21 21" version="1.1" xmlns="http://www.w3.org/2000/svg" xmlns:xlink="http://www.w3.org/1999/xlink">
    <!-- Generator: sketchtool 62 (101010) - https://sketch.com -->
    <title>0A3BA06B-737A-42DF-A05A-273A9974AEA3@sv</title>
    <desc>Created with sketchtool.</desc>
    <g id="Brand" stroke="none" stroke-width="1" fill="none" fill-rule="evenodd">
        <g id="icons-illustrarions" transform="translate(-249.000000, -148.000000)" fill="#F5F5F5" fill-rule="nonzero">
            <g id="icons-White" transform="translate(41.000000, 147.000000)">
                <g id="invoice--white" transform="translate(208.000000, 1.000000)">
                    <path d="M3.83653846,2.03846154 L3.83653846,17.5192308 C3.83653846,17.8894231 3.51850962,18.1923077 3.12980769,18.1923077 C2.74110577,18.1923077 2.42307692,17.8894231 2.42307692,17.5192308 L2.42307692,3.57692308 L1.61538462,3.57692308 C0.721875,3.57692308 0,4.26442308 0,5.11538462 L0,18.9615385 C0,19.8125 0.721875,20.5 1.61538462,20.5 L19.4401442,20.5 C20.2983173,20.5 21,19.8365385 21,19.0144231 L21,2.03846154 C21,1.1875 20.278125,0.5 19.3846154,0.5 L5.35096154,0.596153846 C4.45745192,0.596153846 3.83653846,1.1875 3.83653846,2.03846154 Z M7.16826923,3.57692308 L11.4086538,3.57692308 C11.7973558,3.57692308 12.1153846,3.87980769 12.1153846,4.25 C12.1153846,4.62019231 11.7973558,4.92307692 11.4086538,4.92307692 L7.16826923,4.92307692 C6.77956731,4.92307692 6.46153846,4.62019231 6.46153846,4.25 C6.46153846,3.87980769 6.77956731,3.57692308 7.16826923,3.57692308 Z M7.16826923,11.2692308 L14.6394231,11.2692308 C15.028125,11.2692308 15.3461538,11.5721154 15.3461538,11.9423077 C15.3461538,12.3125 15.028125,12.6153846 14.6394231,12.6153846 L7.16826923,12.6153846 C6.77956731,12.6153846 6.46153846,12.3125 6.46153846,11.9423077 C6.46153846,11.5721154 6.77956731,11.2692308 7.16826923,11.2692308 Z M17.0625,16.4615385 L7.16826923,16.4615385 C6.77956731,16.4615385 6.46153846,16.1586538 6.46153846,15.7884615 C6.46153846,15.4182692 6.77956731,15.1153846 7.16826923,15.1153846 L17.0625,15.1153846 C17.4512019,15.1153846 17.7692308,15.4182692 17.7692308,15.7884615 C17.7692308,16.1586538 17.4512019,16.4615385 17.0625,16.4615385 Z M17.0625,8.76923077 L7.16826923,8.76923077 C6.77956731,8.76923077 6.46153846,8.46634615 6.46153846,8.09615385 C6.46153846,7.72596154 6.77956731,7.42307692 7.16826923,7.42307692 L17.0625,7.42307692 C17.4512019,7.42307692 17.7692308,7.72596154 17.7692308,8.09615385 C17.7692308,8.46634615 17.4512019,8.76923077 17.0625,8.76923077 Z" id="Shape"></path>
                </g>
            </g>
        </g>
    </g>
</svg>