<?xml version="1.0" encoding="UTF-8"?>
<svg width="12px" height="11px" viewBox="0 0 12 11" version="1.1" xmlns="http://www.w3.org/2000/svg" xmlns:xlink="http://www.w3.org/1999/xlink">
    <!-- Generator: sketchtool 62 (101010) - https://sketch.com -->
    <title>D6853C46-FD47-44C7-9755-5F85C4D7BB23@sv</title>
    <desc>Created with sketchtool.</desc>
    <g id="Brand" stroke="none" stroke-width="1" fill="none" fill-rule="evenodd">
        <g id="style-guide" transform="translate(-251.000000, -1615.000000)" fill="#747D85" fill-rule="nonzero">
            <g id="bx-like" transform="translate(251.000000, 1615.000000)">
                <path d="M10.8,3.47368421 L7.4328,3.47368421 L8.1066,1.52436842 C8.2278,1.17236842 8.1666,0.782157895 7.9416,0.481105263 C7.7166,0.180052632 7.3518,0 6.9672,0 L6,0 C5.8218,0 5.6532,0.0764210526 5.5386,0.208421053 L2.7186,3.47368421 L1.2,3.47368421 C0.5382,3.47368421 0,3.993 0,4.63157895 L0,9.84210526 C0,10.4806842 0.5382,11 1.2,11 L3,11 L9.1842,11 C9.6816,11 10.1328,10.6983684 10.308,10.2485263 L11.9622,5.99268421 C11.9874,5.92784211 12,5.85894737 12,5.78947368 L12,4.63157895 C12,3.993 11.4618,3.47368421 10.8,3.47368421 Z M1.2,4.63157895 L2.4,4.63157895 L2.4,9.84210526 L1.2,9.84210526 L1.2,4.63157895 Z M10.8,5.68468421 L9.1842,9.84210526 L3.6,9.84210526 L3.6,4.26221053 L6.2808,1.15789474 L6.9684,1.15789474 L6.0312,3.86910526 C5.9694,4.04568421 6.0006,4.23963158 6.1134,4.39073684 C6.2262,4.54242105 6.4074,4.63157895 6.6,4.63157895 L10.8,4.63157895 L10.8,5.68468421 Z" id="Shape"></path>
            </g>
        </g>
    </g>
</svg>