<svg xmlns="http://www.w3.org/2000/svg" xmlns:xlink="http://www.w3.org/1999/xlink" width="16px" height="21px" viewBox="0 0 16 21" version="1.1">
    <!-- Generator: sketchtool 62 (101010) - https://sketch.com -->
    <title>587C3841-561E-46B2-814D-1D8BB652AB2D@sv</title>
    <desc>Created with sketchtool.</desc>
    <g id="Brand" stroke="none" stroke-width="1" fill="none" fill-rule="evenodd">
        <g id="icons-illustrarions" transform="translate(-523.000000, -221.000000)" fill="#293136" fill-rule="nonzero">
            <g id="icons-dark" transform="translate(41.000000, 220.000000)">
                <path d="M496,8 L495,8 L495,6 C495,3.24 492.76,1 490,1 C487.24,1 485,3.24 485,6 L485,8 L484,8 C482.9,8 482,8.9 482,10 L482,20 C482,21.1 482.9,22 484,22 L496,22 C497.1,22 498,21.1 498,20 L498,10 C498,8.9 497.1,8 496,8 Z M490,17 C488.9,17 488,16.1 488,15 C488,13.9 488.9,13 490,13 C491.1,13 492,13.9 492,15 C492,16.1 491.1,17 490,17 Z M493.1,8 L486.9,8 L486.9,6 C486.9,4.29 488.29,2.9 490,2.9 C491.71,2.9 493.1,4.29 493.1,6 L493.1,8 Z" id="lock-password-dark"/>
            </g>
        </g>
    </g>
</svg>