<?xml version="1.0" encoding="UTF-8"?>
<svg width="20px" height="16px" viewBox="0 0 20 16" version="1.1" xmlns="http://www.w3.org/2000/svg" xmlns:xlink="http://www.w3.org/1999/xlink">
    <!-- Generator: sketchtool 62 (101010) - https://sketch.com -->
    <title>D01E3CBE-2EAF-4F00-96B6-761CE6083853@sv</title>
    <desc>Created with sketchtool.</desc>
    <g id="Brand" stroke="none" stroke-width="1" fill="none" fill-rule="evenodd">
        <g id="icons-illustrarions" transform="translate(-483.000000, -224.000000)" fill="#293136" fill-rule="nonzero">
            <path d="M500,224 L486,224 C484.343146,224 483,225.343146 483,227 L483,237 C483,238.656854 484.343146,240 486,240 L500,240 C501.656854,240 503,238.656854 503,237 L503,227 C503,225.343146 501.656854,224 500,224 Z M499.33,226 L493,230.75 L486.67,226 L499.33,226 Z M500,238 L486,238 C485.447715,238 485,237.552285 485,237 L485,227.25 L492.4,232.8 C492.573096,232.929822 492.78363,233 493,233 C493.21637,233 493.426904,232.929822 493.6,232.8 L501,227.25 L501,237 C501,237.552285 500.552285,238 500,238 Z" id="mail-dark"></path>
        </g>
    </g>
</svg>