<?xml version="1.0" encoding="UTF-8"?>
<svg width="20px" height="20px" viewBox="0 0 20 20" version="1.1" xmlns="http://www.w3.org/2000/svg" xmlns:xlink="http://www.w3.org/1999/xlink">
    <!-- Generator: sketchtool 62 (101010) - https://sketch.com -->
    <title>78793FD5-70E3-4238-81EE-5573768201E7@sv</title>
    <desc>Created with sketchtool.</desc>
    <g id="Brand" stroke="none" stroke-width="1" fill="none" fill-rule="evenodd">
        <g id="icons-illustrarions" transform="translate(-668.000000, -324.000000)" fill="#FFC13B" fill-rule="nonzero">
            <path d="M678,324 C672.48,324 668,328.48 668,334 C668,339.52 672.48,344 678,344 C683.52,344 688,339.52 688,334 C688,328.48 683.52,324 678,324 Z M679.41,340.09 L679.41,342 L676.74,342 L676.74,340.07 C675.03,339.71 673.58,338.61 673.47,336.67 L675.43,336.67 C675.53,337.72 676.25,338.54 678.08,338.54 C680.04,338.54 680.48,337.56 680.48,336.95 C680.48,336.12 680.04,335.34 677.81,334.81 C675.33,334.21 673.63,333.19 673.63,331.14 C673.63,329.42 675.02,328.3 676.74,327.93 L676.74,326 L679.41,326 L679.41,327.95 C681.27,328.4 682.2,329.81 682.26,331.34 L680.3,331.34 C680.25,330.23 679.66,329.47 678.08,329.47 C676.58,329.47 675.68,330.15 675.68,331.11 C675.68,331.95 676.33,332.5 678.35,333.02 C680.37,333.54 682.53,334.41 682.53,336.93 C682.52,338.76 681.15,339.76 679.41,340.09 Z" id="money-yellow"></path>
        </g>
    </g>
</svg>