<?xml version="1.0" encoding="UTF-8"?>
<svg width="20px" height="20px" viewBox="0 0 20 20" version="1.1" xmlns="http://www.w3.org/2000/svg" xmlns:xlink="http://www.w3.org/1999/xlink">
    <!-- Generator: sketchtool 62 (101010) - https://sketch.com -->
    <title>5E04CAE6-F01A-48EE-A39F-3018AC17EF23@sv</title>
    <desc>Created with sketchtool.</desc>
    <g id="Brand" stroke="none" stroke-width="1" fill="none" fill-rule="evenodd">
        <g id="icons-illustrarions" transform="translate(-668.000000, -292.000000)" fill="#F5515F" fill-rule="nonzero">
            <path d="M678,292 C672.48,292 668,296.48 668,302 C668,307.52 672.48,312 678,312 C683.52,312 688,307.52 688,302 C688,296.48 683.52,292 678,292 Z M679.41,308.09 L679.41,310 L676.74,310 L676.74,308.07 C675.03,307.71 673.58,306.61 673.47,304.67 L675.43,304.67 C675.53,305.72 676.25,306.54 678.08,306.54 C680.04,306.54 680.48,305.56 680.48,304.95 C680.48,304.12 680.04,303.34 677.81,302.81 C675.33,302.21 673.63,301.19 673.63,299.14 C673.63,297.42 675.02,296.3 676.74,295.93 L676.74,294 L679.41,294 L679.41,295.95 C681.27,296.4 682.2,297.81 682.26,299.34 L680.3,299.34 C680.25,298.23 679.66,297.47 678.08,297.47 C676.58,297.47 675.68,298.15 675.68,299.11 C675.68,299.95 676.33,300.5 678.35,301.02 C680.37,301.54 682.53,302.41 682.53,304.93 C682.52,306.76 681.15,307.76 679.41,308.09 Z" id="money-red"></path>
        </g>
    </g>
</svg>