<?xml version="1.0" encoding="UTF-8"?>
<svg width="20px" height="20px" viewBox="0 0 20 20" version="1.1" xmlns="http://www.w3.org/2000/svg" xmlns:xlink="http://www.w3.org/1999/xlink">
    <!-- Generator: sketchtool 62 (101010) - https://sketch.com -->
    <title>DFC4054E-1CB6-4D3C-9391-327C43422265@sv</title>
    <desc>Created with sketchtool.</desc>
    <g id="Brand" stroke="none" stroke-width="1" fill="none" fill-rule="evenodd">
        <g id="icons-illustrarions" transform="translate(-668.000000, -261.000000)" fill="#7ED27A" fill-rule="nonzero">
            <path d="M678,261 C672.48,261 668,265.48 668,271 C668,276.52 672.48,281 678,281 C683.52,281 688,276.52 688,271 C688,265.48 683.52,261 678,261 Z M679.41,277.09 L679.41,279 L676.74,279 L676.74,277.07 C675.03,276.71 673.58,275.61 673.47,273.67 L675.43,273.67 C675.53,274.72 676.25,275.54 678.08,275.54 C680.04,275.54 680.48,274.56 680.48,273.95 C680.48,273.12 680.04,272.34 677.81,271.81 C675.33,271.21 673.63,270.19 673.63,268.14 C673.63,266.42 675.02,265.3 676.74,264.93 L676.74,263 L679.41,263 L679.41,264.95 C681.27,265.4 682.2,266.81 682.26,268.34 L680.3,268.34 C680.25,267.23 679.66,266.47 678.08,266.47 C676.58,266.47 675.68,267.15 675.68,268.11 C675.68,268.95 676.33,269.5 678.35,270.02 C680.37,270.54 682.53,271.41 682.53,273.93 C682.52,275.76 681.15,276.76 679.41,277.09 Z" id="money-green"></path>
        </g>
    </g>
</svg>