<?xml version="1.0" encoding="UTF-8"?>
<svg width="20px" height="20px" viewBox="0 0 20 20" version="1.1" xmlns="http://www.w3.org/2000/svg" xmlns:xlink="http://www.w3.org/1999/xlink">
    <!-- Generator: sketchtool 62 (101010) - https://sketch.com -->
    <title>24E7447B-8C6C-41EE-9785-631CC95DEAA3@sv</title>
    <desc>Created with sketchtool.</desc>
    <g id="Brand" stroke="none" stroke-width="1" fill="none" fill-rule="evenodd">
        <g id="icons-illustrarions" transform="translate(-668.000000, -222.000000)" fill="#293136" fill-rule="nonzero">
            <g id="icons-dark" transform="translate(41.000000, 220.000000)">
                <path d="M637,2 C631.48,2 627,6.48 627,12 C627,17.52 631.48,22 637,22 C642.52,22 647,17.52 647,12 C647,6.48 642.52,2 637,2 Z M638.41,18.09 L638.41,20 L635.74,20 L635.74,18.07 C634.03,17.71 632.58,16.61 632.47,14.67 L634.43,14.67 C634.53,15.72 635.25,16.54 637.08,16.54 C639.04,16.54 639.48,15.56 639.48,14.95 C639.48,14.12 639.04,13.34 636.81,12.81 C634.33,12.21 632.63,11.19 632.63,9.14 C632.63,7.42 634.02,6.3 635.74,5.93 L635.74,4 L638.41,4 L638.41,5.95 C640.27,6.4 641.2,7.81 641.26,9.34 L639.3,9.34 C639.25,8.23 638.66,7.47 637.08,7.47 C635.58,7.47 634.68,8.15 634.68,9.11 C634.68,9.95 635.33,10.5 637.35,11.02 C639.37,11.54 641.53,12.41 641.53,14.93 C641.52,16.76 640.15,17.76 638.41,18.09 Z" id="money--dark"></path>
            </g>
        </g>
    </g>
</svg>