<?xml version="1.0" encoding="UTF-8"?>
<svg width="29px" height="31px" viewBox="0 0 29 31" version="1.1" xmlns="http://www.w3.org/2000/svg" xmlns:xlink="http://www.w3.org/1999/xlink">
    <!-- Generator: sketchtool 62 (101010) - https://sketch.com -->
    <title>7EF2AD4B-1E8F-4C36-8B0F-8760CAC93943@1,5x</title>
    <desc>Created with sketchtool.</desc>
    <g id="Brand" stroke="none" stroke-width="1" fill="none" fill-rule="evenodd">
        <g id="style-guide" transform="translate(-55.000000, -1797.000000)">
            <g id="profile" transform="translate(55.000000, 1786.000000)">
                <g id="Group-2" transform="translate(0.000000, 11.000000)">
                    <path d="M15.6196632,29.4921182 L15.5808824,29.5587372 C15.0366146,30.4234949 14.0815126,31 13,31 C11.3176471,31 9.94117647,29.605 9.94117647,27.9 L9.94117647,27.9 L14.7077487,27.9010857 C14.9547176,28.4661213 15.2613432,28.9991195 15.6196632,29.4921182 Z M13,0 C14.2235294,0 15.2941176,1.085 15.2941176,2.325 L15.2941176,2.325 L15.2941176,3.41 C19.7294118,4.495 22.9411765,8.37 22.9411765,13.175 L22.9411765,13.175 L22.9415628,16.0112717 C22.7953209,16.0037878 22.6481028,16 22.5,16 C17.8055796,16 14,19.8055796 14,24.5 C14,25.1355249 14.0697464,25.7547597 14.2020025,26.3504675 L0,26.35 L0,24.8 L3.05882353,21.7 L3.05882353,13.175 C3.05882353,8.37 6.27058824,4.495 10.7058824,3.41 L10.7058824,3.41 L10.7058824,2.325 C10.7058824,1.085 11.7764706,0 13,0 Z" id="Combined-Shape" fill="#223066" fill-rule="nonzero"></path>
                    <circle id="Oval" fill="#F5515F" cx="22.5" cy="24.5" r="6.5"></circle>
                </g>
            </g>
        </g>
    </g>
</svg>