<?xml version="1.0" encoding="UTF-8"?>
<svg width="18px" height="18px" viewBox="0 0 18 18" version="1.1" xmlns="http://www.w3.org/2000/svg" xmlns:xlink="http://www.w3.org/1999/xlink">
    <!-- Generator: sketchtool 62 (101010) - https://sketch.com -->
    <title>22487DE9-CDD8-47AA-8586-1B6FBD883124@sv</title>
    <desc>Created with sketchtool.</desc>
    <g id="Brand" stroke="none" stroke-width="1" fill="none" fill-rule="evenodd">
        <g id="icons-illustrarions" transform="translate(-746.000000, -223.000000)" fill="#293136" fill-rule="nonzero">
            <path d="M749.62,230.79 C751.06,233.62 753.38,235.93 756.21,237.38 L758.41,235.18 C758.68,234.91 759.08,234.82 759.43,234.94 C760.55,235.31 761.76,235.51 763,235.51 C763.55,235.51 764,235.96 764,236.51 L764,240 C764,240.55 763.55,241 763,241 C753.61,241 746,233.39 746,224 C746,223.45 746.45,223 747,223 L750.5,223 C751.05,223 751.5,223.45 751.5,224 C751.5,225.25 751.7,226.45 752.07,227.57 C752.18,227.92 752.1,228.31 751.82,228.59 L749.62,230.79 Z" id="phone--dark"></path>
        </g>
    </g>
</svg>