<?xml version="1.0" encoding="UTF-8"?>
<svg width="22px" height="22px" viewBox="0 0 22 22" version="1.1" xmlns="http://www.w3.org/2000/svg" xmlns:xlink="http://www.w3.org/1999/xlink">
    <!-- Generator: sketchtool 62 (101010) - https://sketch.com -->
    <title>0191A572-0C90-43E0-90D5-96BF077EE65D@sv</title>
    <desc>Created with sketchtool.</desc>
    <g id="Brand" stroke="none" stroke-width="1" fill="none" fill-rule="evenodd">
        <g id="icons-illustrarions" transform="translate(-888.000000, -221.000000)" fill="#747D85" fill-rule="nonzero">
            <g id="pin.circle--dark" transform="translate(888.000000, 221.000000)">
                <path d="M6.75097677,13.0382401 C6.75097677,13.2754949 6.82287731,13.4624235 6.96666834,13.5990258 C7.11045937,13.7356271 7.30457767,13.8039278 7.54902323,13.8039278 L10.3313771,13.8039278 L10.3313771,15.734319 C10.3313771,16.1297438 10.3727169,16.4892215 10.4553966,16.812752 C10.5380762,17.1362816 10.6333377,17.3933074 10.741181,17.5838293 C10.8490242,17.7743523 10.9352988,17.8696138 11.0000045,17.8696138 C11.0647103,17.8696138 11.1509848,17.7743523 11.2588281,17.5838293 C11.3666714,17.3933064 11.4619328,17.1362806 11.5446125,16.812752 C11.6272921,16.4892225 11.6686319,16.1297448 11.6686319,15.734319 L11.6686319,13.8039278 L14.4509858,13.8039278 C14.6954304,13.8039278 14.8895487,13.7356271 15.0333407,13.5990258 C15.1771317,13.4624245 15.2490272,13.2754959 15.2490272,13.0382401 C15.2490272,12.4630765 15.0297457,11.9004954 14.5911825,11.3504967 C14.1526193,10.8004981 13.5522925,10.3853011 12.7902022,10.1049057 L12.606869,7.58137734 C13.0022937,7.35850132 13.3509858,7.12843588 13.6529454,6.89118103 C13.9549063,6.65392617 14.1813776,6.44542999 14.3323594,6.2656925 C14.4761504,6.07876425 14.548046,5.89183566 14.548046,5.70490674 C14.548046,5.53954708 14.4905296,5.40294577 14.3754969,5.2951028 C14.2604642,5.1872595 14.1022944,5.13333785 13.9009873,5.13333785 L8.09902273,5.13333785 C7.9049051,5.13333785 7.74853259,5.1872595 7.62990518,5.2951028 C7.51127778,5.4029461 7.45196408,5.53954741 7.45196408,5.70490674 C7.45196408,5.89183499 7.53104902,6.08235762 7.68921889,6.27647462 C7.83300992,6.45621312 8.05588555,6.66470929 8.35784578,6.90196315 C8.65980669,7.139218 9.00849881,7.3656894 9.40392214,7.58137734 L9.22058897,10.1049057 C8.45130721,10.3852981 7.84738474,10.8004951 7.40882155,11.3504967 C6.97025836,11.9004954 6.75097677,12.4630765 6.75097677,13.0382401 L6.75097677,13.0382401 Z M11,22 C12.5026131,22 13.9171555,21.7124182 15.2436272,21.1372546 C16.5700988,20.562091 17.7401963,19.7694445 18.7539196,18.759315 C19.7676463,17.7491855 20.5620913,16.5790877 21.1372548,15.2490217 C21.7124183,13.9189557 22,12.5026159 22,11 C22,9.49738908 21.7124183,8.08284637 21.1372548,6.75637439 C20.5620913,5.42990241 19.7676463,4.25980465 18.7539196,3.24608111 C17.740193,2.23235423 16.5682968,1.43790899 15.2382311,0.862745393 C13.9081654,0.287581798 12.4918259,0 10.9892129,0 C9.48659978,0 8.07205739,0.287581798 6.74558571,0.862745393 C5.41911403,1.43790899 4.25081356,2.23235423 3.24068429,3.24608111 C2.23055503,4.25980799 1.43790866,5.42990575 0.862745196,6.75637439 C0.287581732,8.08284637 0,9.49738908 0,11 C0,12.5026159 0.287581732,13.9189557 0.862745196,15.2490217 C1.43790866,16.5790877 2.23235372,17.7491855 3.24608037,18.759315 C4.25980702,19.7694445 5.42990451,20.562091 6.75637285,21.1372546 C8.08284453,21.7124182 9.49738691,22 11,22 Z M11,20.1666679 C9.7274523,20.1666679 8.53758257,19.9312097 7.43039081,19.4602934 C6.32320239,18.9893771 5.35081724,18.3351278 4.51323534,17.4975458 C3.67565344,16.6599637 3.02140437,15.6857796 2.55048813,14.5749935 C2.0795719,13.4642075 1.84411378,12.2725405 1.84411378,10.9999925 C1.84411378,9.73463256 2.0795719,8.54655958 2.55048813,7.43577353 C3.02140437,6.32498747 3.67385475,5.3508034 4.50783926,4.51322131 C5.34182712,3.67563922 6.31241526,3.01959298 7.41960367,2.5450826 C8.52679208,2.07057221 9.71666181,1.83331702 10.9892129,1.83331702 C12.2617606,1.83331702 13.4516303,2.07057221 14.5588221,2.5450826 C15.6660105,3.01959298 16.6401943,3.67563922 17.4813736,4.51322131 C18.3225495,5.3508034 18.9803926,6.32498747 19.4549029,7.43577353 C19.9294132,8.54655958 20.1666683,9.73463256 20.1666683,10.9999925 C20.1666683,12.2725405 19.9312102,13.4642075 19.460294,14.5749935 C18.9893777,15.6857796 18.3351287,16.6599637 17.4975468,17.4975458 C16.6599649,18.3351278 15.685781,18.9893771 14.5749952,19.4602934 C13.4642094,19.9312097 12.2725427,20.1666679 10.999995,20.1666679 L11,20.1666679 Z" id="Shape"></path>
            </g>
        </g>
    </g>
</svg>
