<?xml version="1.0" encoding="UTF-8"?>
<svg width="16px" height="16px" viewBox="0 0 16 16" version="1.1" xmlns="http://www.w3.org/2000/svg" xmlns:xlink="http://www.w3.org/1999/xlink">
    <!-- Generator: sketchtool 62 (101010) - https://sketch.com -->
    <title>1138BDC7-AA85-4125-82F4-5197FB5B33E7@sv</title>
    <desc>Created with sketchtool.</desc>
    <g id="Brand" stroke="none" stroke-width="1" fill="none" fill-rule="evenodd">
        <g id="icons-illustrarions" transform="translate(-784.000000, -151.000000)" fill="#FFFFFF" fill-rule="nonzero">
            <g id="icons-White" transform="translate(41.000000, 147.000000)">
                <path d="M758,11 L752,11 L752,5 C752,4.44771525 751.552285,4 751,4 C750.447715,4 750,4.44771525 750,5 L750,11 L744,11 C743.447715,11 743,11.4477153 743,12 C743,12.5522847 743.447715,13 744,13 L750,13 L750,19 C750,19.5522847 750.447715,20 751,20 C751.552285,20 752,19.5522847 752,19 L752,13 L758,13 C758.552285,13 759,12.5522847 759,12 C759,11.4477153 758.552285,11 758,11 Z" id="plus--white"></path>
            </g>
        </g>
    </g>
</svg>