<?xml version="1.0" encoding="UTF-8"?>
<svg width="16px" height="16px" viewBox="0 0 16 16" version="1.1" xmlns="http://www.w3.org/2000/svg" xmlns:xlink="http://www.w3.org/1999/xlink">
    <!-- Generator: sketchtool 62 (101010) - https://sketch.com -->
    <title>CA5B69A6-410D-429F-9253-CF477311AE4B@sv</title>
    <desc>Created with sketchtool.</desc>
    <g id="Brand" stroke="none" stroke-width="1" fill="none" fill-rule="evenodd">
        <g id="icons-illustrarions" transform="translate(-784.000000, -224.000000)" fill="#293136" fill-rule="nonzero">
            <path d="M799,231 L793,231 L793,225 C793,224.447715 792.552285,224 792,224 C791.447715,224 791,224.447715 791,225 L791,231 L785,231 C784.447715,231 784,231.447715 784,232 C784,232.552285 784.447715,233 785,233 L791,233 L791,239 C791,239.552285 791.447715,240 792,240 C792.552285,240 793,239.552285 793,239 L793,233 L799,233 C799.552285,233 800,232.552285 800,232 C800,231.447715 799.552285,231 799,231 Z" id="plus--dark"></path>
        </g>
    </g>
</svg>