<?xml version="1.0" encoding="UTF-8"?>
<svg width="20px" height="20px" viewBox="0 0 20 20" version="1.1" xmlns="http://www.w3.org/2000/svg" xmlns:xlink="http://www.w3.org/1999/xlink">
    <!-- Generator: sketchtool 62 (101010) - https://sketch.com -->
    <title>1605EC39-A9CA-4EA3-BD76-ABCAE756481D@sv</title>
    <desc>Created with sketchtool.</desc>
    <g id="Brand" stroke="none" stroke-width="1" fill="none" fill-rule="evenodd">
        <g id="icons-illustrarions" transform="translate(-207.000000, -261.000000)" fill="#223066" fill-rule="nonzero">
            <g id="icons-blue" transform="translate(83.000000, 260.000000)">
                <g id="suppliers--blue" transform="translate(124.000000, 1.000000)">
                    <path d="M10,0 C4.48,0 0,4.48 0,10 C0,15.52 4.48,20 10,20 C15.52,20 20,15.52 20,10 C20,4.48 15.52,0 10,0 Z M6,15.5 C4.62,15.5 3.5,14.38 3.5,13 C3.5,11.62 4.62,10.5 6,10.5 C7.38,10.5 8.5,11.62 8.5,13 C8.5,14.38 7.38,15.5 6,15.5 Z M7.5,6 C7.5,4.62 8.62,3.5 10,3.5 C11.38,3.5 12.5,4.62 12.5,6 C12.5,7.38 11.38,8.5 10,8.5 C8.62,8.5 7.5,7.38 7.5,6 Z M14,15.5 C12.62,15.5 11.5,14.38 11.5,13 C11.5,11.62 12.62,10.5 14,10.5 C15.38,10.5 16.5,11.62 16.5,13 C16.5,14.38 15.38,15.5 14,15.5 Z" id="Shape"></path>
                </g>
            </g>
        </g>
    </g>
</svg>