<?xml version="1.0" encoding="UTF-8"?>
<svg width="20px" height="19px" viewBox="0 0 20 19" version="1.1" xmlns="http://www.w3.org/2000/svg" xmlns:xlink="http://www.w3.org/1999/xlink">
    <!-- Generator: sketchtool 62 (101010) - https://sketch.com -->
    <title>57FC2C3C-A62D-40FB-88E4-EACEC3C9CE94@sv</title>
    <desc>Created with sketchtool.</desc>
    <g id="Brand" stroke="none" stroke-width="1" fill="none" fill-rule="evenodd">
        <g id="icons-illustrarions" transform="translate(-290.000000, -222.000000)" fill="#223066" fill-rule="nonzero">
            <g id="team-dark" transform="translate(290.000000, 222.000000)">
                <path d="M6,8 C8.209139,8 10,6.209139 10,4 C10,1.790861 8.209139,0 6,0 C3.790861,0 2,1.790861 2,4 C2,6.209139 3.790861,8 6,8 Z" id="Path"></path>
                <path d="M15,11 C16.6568542,11 18,9.65685425 18,8 C18,6.34314575 16.6568542,5 15,5 C13.3431458,5 12,6.34314575 12,8 C12,9.65685425 13.3431458,11 15,11 Z" id="Path"></path>
                <path d="M19,17.9988402 C19.5522847,17.9988402 20,17.5506057 20,16.9976804 C19.9983651,15.0887885 18.9124784,13.3469906 17.2003476,12.5069459 C15.4882168,11.6669012 13.447913,11.8748561 11.94,13.043099 C9.93707721,11.0457226 6.93070952,10.4505801 4.31922658,11.5344858 C1.70774363,12.6183914 0.00382429519,15.168556 0,17.9988402 C0,18.5517655 0.44771525,19 1,19 L13,19 C13.5522847,19 14,18.5517655 14,17.9988402" id="Path"></path>
            </g>
        </g>
    </g>
</svg>