<?xml version="1.0" encoding="UTF-8"?>
<svg width="20px" height="20px" viewBox="0 0 20 20" version="1.1" xmlns="http://www.w3.org/2000/svg" xmlns:xlink="http://www.w3.org/1999/xlink">
    <!-- Generator: sketchtool 62 (101010) - https://sketch.com -->
    <title>68F80874-0BDD-4997-86EB-D633C65BC9CC@sv</title>
    <desc>Created with sketchtool.</desc>
    <g id="Brand" stroke="none" stroke-width="1" fill="none" fill-rule="evenodd">
        <g id="icons-illustrarions" transform="translate(-1001.000000, -222.000000)" fill="#F5515F">
            <path d="M1011,222 C1016.52285,222 1021,226.477153 1021,232 C1021,237.522847 1016.52285,242 1011,242 C1005.47715,242 1001,237.522847 1001,232 C1001,226.477153 1005.47715,222 1011,222 Z M1011.83333,226.445224 L1010.16667,226.445224 C1009.42609,226.420233 1008.80491,226.99913 1008.77778,227.739578 L1008.77778,228.66729 L1006,228.66729 C1005.69318,228.66729 1005.44444,228.916004 1005.44444,229.222807 C1005.44444,229.52961 1005.69318,229.778324 1006,229.778324 L1006.55556,229.778324 L1006.55556,235.889006 C1006.55556,236.809416 1007.30175,237.555556 1008.22222,237.555556 L1013.77778,237.555556 C1014.69825,237.555556 1015.44444,236.809416 1015.44444,235.889006 L1015.44444,229.778324 L1016,229.778324 C1016.30682,229.778324 1016.55556,229.52961 1016.55556,229.222807 C1016.55556,228.916004 1016.30682,228.66729 1016,228.66729 L1013.22222,228.66729 L1013.22222,227.739578 C1013.19509,226.99913 1012.57391,226.420233 1011.83333,226.445224 Z M1009.33333,231.444873 C1009.64016,231.444873 1009.88889,231.693586 1009.88889,232.00039 L1009.88889,234.222456 C1009.88889,234.529259 1009.64016,234.777973 1009.33333,234.777973 C1009.02651,234.777973 1008.77778,234.529259 1008.77778,234.222456 L1008.77778,232.00039 C1008.77778,231.693586 1009.02651,231.444873 1009.33333,231.444873 Z M1012.66667,231.444873 C1012.97349,231.444873 1013.22222,231.693586 1013.22222,232.00039 L1013.22222,234.222456 C1013.22222,234.529259 1012.97349,234.777973 1012.66667,234.777973 C1012.35984,234.777973 1012.11111,234.529259 1012.11111,234.222456 L1012.11111,232.00039 C1012.11111,231.693586 1012.35984,231.444873 1012.66667,231.444873 Z M1011.83333,227.556257 C1011.99444,227.556257 1012.11111,227.650695 1012.11111,227.739578 L1012.11111,228.66729 L1009.88889,228.66729 L1009.88889,227.739578 C1009.88889,227.650695 1010.00556,227.556257 1010.16667,227.556257 L1011.83333,227.556257 Z" id="trash"></path>
        </g>
    </g>
</svg>