<?xml version="1.0" encoding="UTF-8"?>
<svg width="20px" height="20px" viewBox="0 0 20 20" version="1.1" xmlns="http://www.w3.org/2000/svg" xmlns:xlink="http://www.w3.org/1999/xlink">
    <!-- Generator: sketchtool 62 (101010) - https://sketch.com -->
    <title>B1D845A9-C9CE-4601-AD26-9155DF29721F@sv</title>
    <desc>Created with sketchtool.</desc>
    <g id="Brand" stroke="none" stroke-width="1" fill="none" fill-rule="evenodd">
        <g id="icons-illustrarions" transform="translate(-1038.000000, -221.000000)" fill="#F5515F" fill-rule="nonzero">
            <g id="trash-2" transform="translate(1038.000000, 221.000000)">
                <path d="M19,4 L14,4 L14,2.33 C13.951155,0.997100054 12.8330357,-0.0449870642 11.5,4.02122563e-13 L8.5,4.02122563e-13 C7.16696427,-0.0449870642 6.04884504,0.997100054 6,2.33 L6,4 L1,4 C0.44771525,4 0,4.44771525 0,5 C0,5.55228475 0.44771525,6 1,6 L2,6 L2,17 C2,18.6568542 3.34314575,20 5,20 L15,20 C16.6568542,20 18,18.6568542 18,17 L18,6 L19,6 C19.5522847,6 20,5.55228475 20,5 C20,4.44771525 19.5522847,4 19,4 Z M8,14 C8,14.5522847 7.55228475,15 7,15 C6.44771525,15 6,14.5522847 6,14 L6,10 C6,9.44771525 6.44771525,9 7,9 C7.55228475,9 8,9.44771525 8,10 L8,14 Z M8,2.33 C8,2.17 8.21,2 8.5,2 L11.5,2 C11.79,2 12,2.17 12,2.33 L12,4 L8,4 L8,2.33 Z M14,14 C14,14.5522847 13.5522847,15 13,15 C12.4477153,15 12,14.5522847 12,14 L12,10 C12,9.44771525 12.4477153,9 13,9 C13.5522847,9 14,9.44771525 14,10 L14,14 Z" id="Shape"></path>
            </g>
        </g>
    </g>
</svg>