<?xml version="1.0" encoding="UTF-8"?>
<svg width="20px" height="20px" viewBox="0 0 20 20" version="1.1" xmlns="http://www.w3.org/2000/svg" xmlns:xlink="http://www.w3.org/1999/xlink">
    <!-- Generator: sketchtool 62 (101010) - https://sketch.com -->
    <title>16C1663E-1DF5-4340-B0F2-02A62133387E@sv</title>
    <desc>Created with sketchtool.</desc>
    <g id="Brand" stroke="none" stroke-width="1" fill="none" fill-rule="evenodd">
        <g id="icons-illustrarions" transform="translate(-559.000000, -149.000000)" fill="#FFFFFF" fill-rule="nonzero">
            <g id="icons-White" transform="translate(41.000000, 147.000000)">
                <path d="M528,13.6764469 C528.627451,13.6829829 529.196078,13.5244864 529.705882,13.2009576 C530.215686,12.877427 530.61928,12.4346168 530.916666,11.872527 C531.214052,11.3104342 531.362745,10.6797157 531.362745,9.9803715 C531.362745,9.32024113 531.212418,8.71566566 530.911764,8.16664511 C530.611111,7.61762455 530.207516,7.17808168 529.70098,6.84801649 C529.194444,6.5179513 528.62745,6.35291871 527.999999,6.35291871 C527.372548,6.35291871 526.803921,6.5179513 526.294117,6.84801649 C525.784314,7.17808168 525.379085,7.61762455 525.078432,8.16664511 C524.777778,8.71566566 524.630719,9.32024113 524.637255,9.9803715 C524.643791,10.6797187 524.795752,11.3071699 525.093137,11.8627251 C525.390523,12.4182803 525.792484,12.8578231 526.299021,13.1813537 C526.805557,13.5048843 527.372551,13.6699169 528.000002,13.6764515 L528,13.6764469 Z M534.705879,18.4705847 L534.676466,18.3627416 C534.513067,17.8790825 534.132348,17.4052268 533.534309,16.9411745 C532.936269,16.4771223 532.165028,16.0947695 531.220584,15.7941162 C530.27614,15.4934625 529.20261,15.3431357 527.999994,15.3431357 C526.803916,15.3431357 525.733655,15.4934625 524.789211,15.7941162 C523.844767,16.0947698 523.071892,16.4771226 522.470585,16.9411745 C521.869279,17.4052268 521.486926,17.8758152 521.323527,18.3529397 L521.294115,18.4705866 C521.882349,19.0522863 522.578428,19.5490177 523.38235,19.9607809 C524.186272,20.3725471 524.998364,20.6879063 525.818626,20.9068586 C526.638888,21.1258131 527.366012,21.2352903 527.999997,21.2352903 C528.64052,21.2352903 529.369279,21.1258131 530.186274,20.9068586 C531.003268,20.6879042 531.812092,20.3725449 532.612744,19.9607809 C533.413398,19.5490147 534.11111,19.0522833 534.705879,18.4705866 L534.705879,18.4705847 Z M528,22 C529.366012,22 530.65196,21.738562 531.857843,21.215686 C533.063726,20.69281 534.127451,19.9722222 535.049018,19.0539227 C535.970588,18.1356232 536.69281,17.0718979 537.215686,15.862747 C537.738562,14.6535961 538,13.3660145 538,12 C538,10.6339901 537.738562,9.34804216 537.215686,8.14215854 C536.69281,6.93627492 535.970588,5.87254968 535.049018,4.95098283 C534.127448,4.02941293 533.062088,3.30718999 531.852937,2.78431399 C530.643787,2.261438 529.356205,2 527.990194,2 C526.624182,2 525.338234,2.261438 524.132351,2.78431399 C522.926467,3.30718999 521.864376,4.02941293 520.946077,4.95098283 C520.027777,5.87255272 519.30719,6.93627796 518.784314,8.14215854 C518.261438,9.34804216 518,10.6339901 518,12 C518,13.3660145 518.261438,14.6535961 518.784314,15.862747 C519.30719,17.0718979 520.029412,18.1356232 520.950982,19.0539227 C521.872552,19.9722222 522.936277,20.69281 524.142157,21.215686 C525.34804,21.738562 526.633988,22 528,22 Z M528,20.3333345 C526.843138,20.3333345 525.761439,20.1192816 524.754901,19.6911758 C523.748366,19.2630701 522.864379,18.668298 522.102941,17.9068598 C521.341503,17.1454215 520.746731,16.2597996 520.318626,15.2499941 C519.89052,14.2401886 519.676467,13.156855 519.676467,11.9999932 C519.676467,10.849666 519.89052,9.76959962 520.318626,8.75979411 C520.746731,7.74998861 521.339868,6.86436673 522.098036,6.10292846 C522.856206,5.3414902 523.738559,4.74508453 524.745094,4.31371145 C525.751629,3.88233837 526.833329,3.66665184 527.990194,3.66665184 C529.147055,3.66665184 530.228755,3.88233837 531.235293,4.31371145 C532.241828,4.74508453 533.127449,5.3414902 533.892158,6.10292846 C534.656863,6.86436673 535.254902,7.74998861 535.686275,8.75979411 C536.117648,9.76959962 536.333335,10.849666 536.333335,11.9999932 C536.333335,13.156855 536.119282,14.2401886 535.691176,15.2499941 C535.263071,16.2597996 534.668299,17.1454215 533.906861,17.9068598 C533.145423,18.668298 532.259801,19.2630701 531.249996,19.6911758 C530.24019,20.1192816 529.156857,20.3333345 527.999995,20.3333345 L528,20.3333345 Z" id="user--white"></path>
            </g>
        </g>
    </g>
</svg>
