<?xml version="1.0" encoding="UTF-8"?>
<svg width="20px" height="20px" viewBox="0 0 20 20" version="1.1" xmlns="http://www.w3.org/2000/svg" xmlns:xlink="http://www.w3.org/1999/xlink">
    <!-- Generator: sketchtool 62 (101010) - https://sketch.com -->
    <title>84AF9A29-1E71-4900-AF35-4DEDDCAB4910@sv</title>
    <desc>Created with sketchtool.</desc>
    <g id="Brand" stroke="none" stroke-width="1" fill="none" fill-rule="evenodd">
        <g id="icons-illustrarions" transform="translate(-559.000000, -222.000000)" fill="#293136" fill-rule="nonzero">
            <path d="M569,233.676447 C569.627451,233.682983 570.196078,233.524486 570.705882,233.200958 C571.215686,232.877427 571.61928,232.434617 571.916666,231.872527 C572.214052,231.310434 572.362745,230.679716 572.362745,229.980372 C572.362745,229.320241 572.212418,228.715666 571.911764,228.166645 C571.611111,227.617625 571.207516,227.178082 570.70098,226.848016 C570.194444,226.517951 569.62745,226.352919 568.999999,226.352919 C568.372548,226.352919 567.803921,226.517951 567.294117,226.848016 C566.784314,227.178082 566.379085,227.617625 566.078432,228.166645 C565.777778,228.715666 565.630719,229.320241 565.637255,229.980372 C565.643791,230.679719 565.795752,231.30717 566.093137,231.862725 C566.390523,232.41828 566.792484,232.857823 567.299021,233.181354 C567.805557,233.504884 568.372551,233.669917 569.000002,233.676451 L569,233.676447 Z M575.705879,238.470585 L575.676466,238.362742 C575.513067,237.879082 575.132348,237.405227 574.534309,236.941175 C573.936269,236.477122 573.165028,236.094769 572.220584,235.794116 C571.27614,235.493463 570.20261,235.343136 568.999994,235.343136 C567.803916,235.343136 566.733655,235.493463 565.789211,235.794116 C564.844767,236.09477 564.071892,236.477123 563.470585,236.941175 C562.869279,237.405227 562.486926,237.875815 562.323527,238.35294 L562.294115,238.470587 C562.882349,239.052286 563.578428,239.549018 564.38235,239.960781 C565.186272,240.372547 565.998364,240.687906 566.818626,240.906859 C567.638888,241.125813 568.366012,241.23529 568.999997,241.23529 C569.64052,241.23529 570.369279,241.125813 571.186274,240.906859 C572.003268,240.687904 572.812092,240.372545 573.612744,239.960781 C574.413398,239.549015 575.11111,239.052283 575.705879,238.470587 L575.705879,238.470585 Z M569,242 C570.366012,242 571.65196,241.738562 572.857843,241.215686 C574.063726,240.69281 575.127451,239.972222 576.049018,239.053923 C576.970588,238.135623 577.69281,237.071898 578.215686,235.862747 C578.738562,234.653596 579,233.366014 579,232 C579,230.63399 578.738562,229.348042 578.215686,228.142159 C577.69281,226.936275 576.970588,225.87255 576.049018,224.950983 C575.127448,224.029413 574.062088,223.30719 572.852937,222.784314 C571.643787,222.261438 570.356205,222 568.990194,222 C567.624182,222 566.338234,222.261438 565.132351,222.784314 C563.926467,223.30719 562.864376,224.029413 561.946077,224.950983 C561.027777,225.872553 560.30719,226.936278 559.784314,228.142159 C559.261438,229.348042 559,230.63399 559,232 C559,233.366014 559.261438,234.653596 559.784314,235.862747 C560.30719,237.071898 561.029412,238.135623 561.950982,239.053923 C562.872552,239.972222 563.936277,240.69281 565.142157,241.215686 C566.34804,241.738562 567.633988,242 569,242 Z M569,240.333334 C567.843138,240.333334 566.761439,240.119282 565.754901,239.691176 C564.748366,239.26307 563.864379,238.668298 563.102941,237.90686 C562.341503,237.145422 561.746731,236.2598 561.318626,235.249994 C560.89052,234.240189 560.676467,233.156855 560.676467,231.999993 C560.676467,230.849666 560.89052,229.7696 561.318626,228.759794 C561.746731,227.749989 562.339868,226.864367 563.098036,226.102928 C563.856206,225.34149 564.738559,224.745085 565.745094,224.313711 C566.751629,223.882338 567.833329,223.666652 568.990194,223.666652 C570.147055,223.666652 571.228755,223.882338 572.235293,224.313711 C573.241828,224.745085 574.127449,225.34149 574.892158,226.102928 C575.656863,226.864367 576.254902,227.749989 576.686275,228.759794 C577.117648,229.7696 577.333335,230.849666 577.333335,231.999993 C577.333335,233.156855 577.119282,234.240189 576.691176,235.249994 C576.263071,236.2598 575.668299,237.145422 574.906861,237.90686 C574.145423,238.668298 573.259801,239.26307 572.249996,239.691176 C571.24019,240.119282 570.156857,240.333334 568.999995,240.333334 L569,240.333334 Z" id="user--dark"></path>
        </g>
    </g>
</svg>