<?xml version="1.0" encoding="UTF-8"?>
<svg width="20px" height="20px" viewBox="0 0 20 20" version="1.1" xmlns="http://www.w3.org/2000/svg" xmlns:xlink="http://www.w3.org/1999/xlink">
    <!-- Generator: sketchtool 62 (101010) - https://sketch.com -->
    <title>8BB33CBD-D607-485B-B702-03B698C20326@sv</title>
    <desc>Created with sketchtool.</desc>
    <g id="Brand" stroke="none" stroke-width="1" fill="none" fill-rule="evenodd">
        <g id="icons-illustrarions" transform="translate(-83.000000, -292.000000)" fill="#7ED27A" fill-rule="nonzero">
            <g id="ic-account-circle-24px--green" transform="translate(83.000000, 292.000000)">
                <path d="M10,0 C4.48,0 0,4.48 0,10 C0,15.52 4.48,20 10,20 C15.52,20 20,15.52 20,10 C20,4.48 15.52,0 10,0 Z M10,3 C11.66,3 13,4.34 13,6 C13,7.66 11.66,9 10,9 C8.34,9 7,7.66 7,6 C7,4.34 8.34,3 10,3 Z M10,17.2 C7.5,17.2 5.29,15.92 4,13.98 C4.03,11.99 8,10.9 10,10.9 C11.99,10.9 15.97,11.99 16,13.98 C14.71,15.92 12.5,17.2 10,17.2 Z" id="Shape"></path>
            </g>
        </g>
    </g>
</svg>