<?xml version="1.0" encoding="UTF-8"?>
<svg width="18px" height="18px" viewBox="0 0 18 18" version="1.1" xmlns="http://www.w3.org/2000/svg" xmlns:xlink="http://www.w3.org/1999/xlink">
    <!-- Generator: sketchtool 62 (101010) - https://sketch.com -->
    <title>7DB6190D-9DB7-4968-92FA-73CE95B843F5@sv</title>
    <desc>Created with sketchtool.</desc>
    <g id="Brand" stroke="none" stroke-width="1" fill="none" fill-rule="evenodd">
        <g id="icons-illustrarions" transform="translate(-819.000000, -223.000000)" fill="#293136" fill-rule="nonzero">
            <g id="bx-world" transform="translate(819.000000, 223.000000)">
                <path d="M9,0 C4.0374,0 0,4.0374 0,9 C0,13.9626 4.0374,18 9,18 C13.9626,18 18,13.9626 18,9 C18,4.0374 13.9626,0 9,0 Z M1.8,9 C1.8,8.1909 1.9404,7.4142 2.1879,6.6879 L3.6,8.1 L5.4,9.9 L5.4,11.7 L7.2,13.5 L8.1,14.4 L8.1,16.1379 C4.5549,15.6924 1.8,12.6648 1.8,9 Z M14.697,13.3857 C14.1093,12.9123 13.2183,12.6 12.6,12.6 L12.6,11.7 C12.6,10.7064 11.7936,9.9 10.8,9.9 L7.2,9.9 L7.2,8.1 L7.2,7.2 C8.1936,7.2 9,6.3936 9,5.4 L9,4.5 L9.9,4.5 C10.8936,4.5 11.7,3.6936 11.7,2.7 L11.7,2.3301 C14.3352,3.4002 16.2,5.985 16.2,9 C16.2,10.6515 15.6357,12.1698 14.697,13.3857 Z" id="Shape"></path>
            </g>
        </g>
    </g>
</svg>