<?xml version="1.0" encoding="UTF-8"?>
<svg width="92px" height="116px" viewBox="0 0 92 116" version="1.1" xmlns="http://www.w3.org/2000/svg" xmlns:xlink="http://www.w3.org/1999/xlink">
    <!-- Generator: sketchtool 62 (101010) - https://sketch.com -->
    <title>F24CD738-93FE-4FF1-A0C6-5CFE81B5AFAF@1,5x</title>
    <desc>Created with sketchtool.</desc>
    <g id="Brand" stroke="none" stroke-width="1" fill="none" fill-rule="evenodd">
        <g id="icons-illustrarions" transform="translate(-1241.000000, -694.000000)" fill-rule="nonzero">
            <g id="worker" transform="translate(1241.000000, 694.000000)">
                <g id="Group" transform="translate(13.000000, 2.000000)">
                    <path d="M58.6666667,100.8 L45.8333333,100.8 C42.7955,100.8 40.3333333,103.306933 40.3333333,106.4 L40.3333333,106.4 C40.3333333,109.493067 42.7955,112 45.8333333,112 L49.5,112 L18.3333333,112 L20.1666667,112 C23.2045,112 25.6666667,109.493067 25.6666667,106.4 L25.6666667,106.4 C25.6666667,103.306933 23.2045,100.8 20.1666667,100.8 L7.33333333,100.8 L7.33333333,87.7333333 L58.6666667,87.7333333 L58.6666667,100.8 Z" id="Path" fill="#F3A73B"></path>
                    <path d="M64.1666667,29.8666667 L64.1666667,29.8666667 L64.1666667,29.8666667 L64.1666667,29.8666667 C64.1666667,15.4336 52.6753333,3.73333333 38.5,3.73333333 L38.5,3.73333333 C38.5,1.67066667 36.8591667,0 34.8333333,0 L31.1666667,0 C29.1408333,0 27.5,1.67066667 27.5,3.73333333 L27.5,3.73333333 C13.3246667,3.73333333 1.83333333,15.4336 1.83333333,29.8666667 L1.83333333,29.8666667 L1.83516667,29.8666667 L1.83333333,29.8666667 C0.821333333,29.8666667 0,30.7029333 0,31.7333333 L0,35.4666667 C0,36.4970667 0.821333333,37.3333333 1.83333333,37.3333333 L64.1666667,37.3333333 C65.1786667,37.3333333 66,36.4970667 66,35.4666667 L66,31.7333333 C66,30.7029333 65.1786667,29.8666667 64.1666667,29.8666667 Z" id="Path" fill="#FCE4A1"></path>
                </g>
                <g id="Group" fill="#333333">
                    <path d="M59.8,52.3870968 C62.33552,52.3870968 64.4,50.2897419 64.4,47.7096774 C64.4,45.1296129 62.33552,43.0322581 59.8,43.0322581 C57.26448,43.0322581 55.2,45.1296129 55.2,47.7096774 C55.2,50.2897419 57.26448,52.3870968 59.8,52.3870968 Z M59.8,46.7741935 C60.30784,46.7741935 60.72,47.1951613 60.72,47.7096774 C60.72,48.2241935 60.30784,48.6451613 59.8,48.6451613 C59.29216,48.6451613 58.88,48.2241935 58.88,47.7096774 C58.88,47.1951613 59.29216,46.7741935 59.8,46.7741935 Z" id="Shape"></path>
                    <path d="M36.8,47.7096774 C36.8,45.1296129 34.73552,43.0322581 32.2,43.0322581 C29.66448,43.0322581 27.6,45.1296129 27.6,47.7096774 C27.6,50.2897419 29.66448,52.3870968 32.2,52.3870968 C34.73552,52.3870968 36.8,50.2897419 36.8,47.7096774 Z M32.2,48.6451613 C31.69216,48.6451613 31.28,48.2241935 31.28,47.7096774 C31.28,47.1951613 31.69216,46.7741935 32.2,46.7741935 C32.70784,46.7741935 33.12,47.1951613 33.12,47.7096774 C33.12,48.2241935 32.70784,48.6451613 32.2,48.6451613 Z" id="Shape"></path>
                    <path d="M77.26896,80.853871 L58.88,78.7770968 L58.88,76.908 C64.52144,73.5776774 68.81048,68.148129 70.69464,61.6633548 C75.40136,61.2536129 79.12,57.2759355 79.12,52.3870968 L79.12,40.6411613 C80.2148,39.9919355 80.96,38.7982581 80.96,37.4193548 L80.96,33.6774194 C80.96,32.2704516 80.18352,31.0561935 79.05008,30.4181935 C78.3564,16.1071613 67.09744,4.60632258 53.04536,3.82051613 C52.30568,1.60716129 50.26328,0 47.84,0 L44.16,0 C41.73672,0 39.69432,1.60716129 38.95464,3.82051613 C24.90072,4.60632258 13.64176,16.1071613 12.94808,30.4181935 C11.81648,31.0561935 11.04,32.2704516 11.04,33.6774194 L11.04,37.4193548 C11.04,38.7982581 11.7852,39.9919355 12.88,40.6411613 L12.88,52.3870968 C12.88,57.2759355 16.59864,61.2536129 21.30536,61.6614839 C23.18952,68.1462581 27.47856,73.5758065 33.12,76.906129 L33.12,78.7752258 L14.73104,80.852 C6.33328,81.8043226 0,88.9963226 0,97.5896774 L0,110.387097 C0,113.481677 2.47664,116 5.52,116 L31.28,116 L33.12,116 L58.88,116 L86.48,116 C89.52336,116 92,113.481677 92,110.387097 L92,97.5896774 C92,88.9963226 85.66672,81.8043226 77.26896,80.853871 Z M36.8,78.6947742 C39.6612,79.8136129 42.75608,80.4516129 46,80.4516129 C49.24392,80.4516129 52.3388,79.8136129 55.2,78.6947742 L55.2,80.1765806 C54.88536,81.1494839 52.95336,86.0645161 46,86.0645161 C39.04848,86.0645161 37.12016,81.1719355 36.8,80.1765806 L36.8,78.6947742 Z M75.44,41.1612903 L75.44,44.951871 C74.36544,44.1249032 73.12712,43.5056129 71.76,43.2230968 L71.76,41.1612903 L75.44,41.1612903 Z M71.50608,57.7361935 C71.65512,56.5949032 71.76,55.4405161 71.76,54.2580645 L71.76,47.1184516 C73.89624,47.8930323 75.44,49.9510968 75.44,52.3870968 C75.44,54.9185161 73.7748,57.0383226 71.50608,57.7361935 Z M75.34616,29.9354839 L71.76,29.9354839 L71.76,33.6774194 L77.28,33.6774194 L77.28,37.4193548 L14.72,37.4193548 L14.72,33.6774194 L68.08,33.6774194 L68.08,29.9354839 L59.5424,29.9354839 L65.11024,11.8151613 C70.8676,15.8751613 74.78128,22.4329032 75.34616,29.9354839 Z M20.24,41.1612903 L20.24,43.2212258 C18.87288,43.5056129 17.63456,44.1230323 16.56,44.95 L16.56,41.1612903 L20.24,41.1612903 Z M44.16,26.1935484 L47.84,26.1935484 C50.88336,26.1935484 53.36,23.6752258 53.36,20.5806452 L53.36,7.57929032 C56.38128,7.81503226 59.2388,8.62516129 61.84424,9.90116129 L55.6876,29.9354839 L36.3124,29.9354839 L30.15576,9.89929032 C32.7612,8.62516129 35.61872,7.81503226 38.64,7.57929032 L38.64,20.5806452 C38.64,23.6752258 41.11664,26.1935484 44.16,26.1935484 Z M42.32,5.61290323 C42.32,4.58012903 43.14616,3.74193548 44.16,3.74193548 L47.84,3.74193548 C48.85384,3.74193548 49.68,4.58012903 49.68,5.61290323 L49.68,20.5806452 C49.68,21.6134194 48.85384,22.4516129 47.84,22.4516129 L44.16,22.4516129 C43.14616,22.4516129 42.32,21.6134194 42.32,20.5806452 L42.32,5.61290323 Z M26.88976,11.8151613 L32.4576,29.9354839 L16.65384,29.9354839 C17.21872,22.4329032 21.1324,15.8751613 26.88976,11.8151613 Z M16.56,52.3870968 C16.56,49.9510968 18.10376,47.8930323 20.24,47.1184516 L20.24,54.2580645 C20.24,55.4405161 20.34488,56.5949032 20.49392,57.7361935 C18.22704,57.0383226 16.56,54.9185161 16.56,52.3870968 Z M23.92,54.2580645 L23.92,41.1612903 L68.08,41.1612903 L68.08,54.2580645 C68.08,66.6382581 58.17528,76.7096774 46,76.7096774 C33.82472,76.7096774 23.92,66.6382581 23.92,54.2580645 Z M31.28,112.258065 L20.24,112.258065 L20.24,104.774194 L33.12,104.774194 C35.14952,104.774194 36.8,106.452452 36.8,108.516129 C36.8,110.579806 35.14952,112.258065 33.12,112.258065 L31.28,112.258065 Z M55.2,108.516129 C55.2,106.452452 56.85048,104.774194 58.88,104.774194 L71.76,104.774194 L71.76,112.258065 L58.88,112.258065 C56.85048,112.258065 55.2,110.579806 55.2,108.516129 Z M88.32,110.387097 C88.32,111.419871 87.49384,112.258065 86.48,112.258065 L75.44,112.258065 L75.44,104.774194 L80.96,104.774194 L80.96,93.5483871 L77.28,93.5483871 L77.28,101.032258 L58.88,101.032258 C54.82096,101.032258 51.52,104.388774 51.52,108.516129 C51.52,109.885677 51.91008,111.152323 52.54304,112.258065 L39.45512,112.258065 C40.08992,111.152323 40.48,109.885677 40.48,108.516129 C40.48,104.388774 37.17904,101.032258 33.12,101.032258 L14.72,101.032258 L14.72,93.5483871 L11.04,93.5483871 L11.04,104.774194 L16.56,104.774194 L16.56,112.258065 L5.52,112.258065 C4.50616,112.258065 3.68,111.419871 3.68,110.387097 L3.68,97.5896774 C3.68,90.9065806 8.60568,85.3123871 15.13768,84.5733548 L27.1216,83.2187742 L26.04152,89.8064516 L29.7712,89.8064516 L30.9212,82.7903226 L33.72904,82.4722581 C35.15504,85.6229677 38.86816,89.8064516 46,89.8064516 C53.13184,89.8064516 56.84496,85.6229677 58.27096,82.4722581 L61.0788,82.7903226 L62.2288,89.8064516 L65.95848,89.8064516 L64.8784,83.2187742 L76.86232,84.5733548 C83.39432,85.3123871 88.32,90.9065806 88.32,97.5896774 L88.32,110.387097 Z" id="Shape"></path>
                    <path d="M57.04,61.7419355 L53.36,61.7419355 C53.36,65.8692903 50.05904,69.2258065 46,69.2258065 C41.94096,69.2258065 38.64,65.8692903 38.64,61.7419355 L34.96,61.7419355 C34.96,67.9329677 39.91144,72.9677419 46,72.9677419 C52.08856,72.9677419 57.04,67.9329677 57.04,61.7419355 Z" id="Path"></path>
                </g>
            </g>
        </g>
    </g>
</svg>