<?xml version="1.0" encoding="UTF-8"?>
<svg width="156px" height="53px" viewBox="0 0 156 53" version="1.1" xmlns="http://www.w3.org/2000/svg" xmlns:xlink="http://www.w3.org/1999/xlink">
    <!-- Generator: sketchtool 62 (101010) - https://sketch.com -->
    <title>184FD144-24B7-47BB-982A-AC3E2E267A75@sv</title>
    <desc>Created with sketchtool.</desc>
    <g id="Brand" stroke="none" stroke-width="1" fill="none" fill-rule="evenodd">
        <g id="icons-illustrarions" transform="translate(-189.000000, -419.000000)" fill-rule="nonzero">
            <g id="Logo" transform="translate(177.000000, 419.000000)">
                <path d="M56.528,35.592 L56.528,29.4 L59.84,29.4 C63.584,29.4 66.032,27.384 66.032,23.928 C66.032,20.256 63.176,18.24 59.384,18.24 L53,18.24 L53,35.592 L56.528,35.592 Z M59.744,26.688 L56.504,26.688 L56.504,20.928 L59.696,20.928 C61.4,20.928 62.744,22.008 62.744,23.736 C62.744,25.416 61.496,26.688 59.744,26.688 Z M72.224,35.592 L72.224,28.896 L75.728,28.896 L78.56,35.592 L82.184,35.592 L78.968,28.32 C80.6,27.504 82.016,26.16 82.016,23.424 C82.016,20.376 80.192,18.24 76.04,18.24 L68.72,18.24 L68.72,35.592 L72.224,35.592 Z M75.416,26.208 L72.224,26.208 L72.224,20.904 L75.68,20.904 C77.288,20.904 78.464,21.912 78.464,23.52 C78.464,25.104 77.288,26.208 75.416,26.208 Z M92.816,35.832 C97.688,35.832 100.76,32.448 100.76,26.952 C100.76,21.408 97.64,18 92.816,18 C87.968,18 84.824,21.408 84.824,26.976 C84.824,32.472 87.872,35.832 92.816,35.832 Z M92.816,32.952 C90.296,32.952 88.64,31.224 88.64,27 C88.64,22.68 90.296,20.88 92.816,20.88 C95.336,20.88 96.944,22.68 96.944,27 C96.944,31.248 95.36,32.952 92.816,32.952 Z M111.152,35.592 L111.152,21.36 L116.288,21.36 L116.288,18.24 L102.392,18.24 L102.392,21.36 L107.648,21.36 L107.648,35.592 L111.152,35.592 Z M122.096,35.592 L122.096,28.896 L125.6,28.896 L128.432,35.592 L132.056,35.592 L128.84,28.32 C130.472,27.504 131.888,26.16 131.888,23.424 C131.888,20.376 130.064,18.24 125.912,18.24 L118.592,18.24 L118.592,35.592 L122.096,35.592 Z M125.288,26.208 L122.096,26.208 L122.096,20.904 L125.552,20.904 C127.16,20.904 128.336,21.912 128.336,23.52 C128.336,25.104 127.16,26.208 125.288,26.208 Z M137.72,35.592 L139.184,31.56 L145.424,31.56 L146.84,35.592 L150.32,35.592 L144.128,18.24 L140.432,18.24 L134.216,35.592 L137.72,35.592 Z M144.584,28.512 L139.952,28.512 L142.28,21.624 L144.584,28.512 Z M156.488,35.592 L156.488,30.624 L159.032,27.504 L163.64,35.592 L167.48,35.592 L161.576,24.936 L166.832,18.24 L162.8,18.24 L156.488,26.184 L156.488,18.24 L152.84,18.24 L152.84,35.592 L156.488,35.592 Z" id="PROTRAK" fill="#223066"></path>
                <g id="Logo-single">
                    <g id="p" transform="translate(12.000000, 0.000000)">
                        <polygon id="Path-13" fill="#4A5CA2" points="0.000226862295 4.81795495 8.35174201 0 29.230303 12.0452277 20.8790147 16.8634095"></polygon>
                        <polygon id="Path-14" fill="#212F69" points="0.000226862295 4.81795495 20.878561 16.8636364 20.878561 26.4997731 0 14.4543186"></polygon>
                        <polygon id="Path-15" fill="#283879" points="20.8790147 16.8634095 29.230303 12.0454545 29.230303 31.317955 16.7032572 38.5452277 16.7028034 48.1815913 8.3512883 52.9997731 8.35174201 33.7270459 20.878561 26.4997731"></polygon>
                        <polygon id="Path-16" fill="#E4EAFF" points="12.5274996 21.6815913 0.000226862295 28.9088641 8.3512883 33.7270459 20.8790147 26.5"></polygon>
                        <polygon id="Path-17" fill="#293136" points="0.000226862295 28.9090909 8.35174201 33.7270459 8.3512883 53 0 48.1815913"></polygon>
                    </g>
                </g>
            </g>
        </g>
    </g>
</svg>